<?xml version="1.0" encoding="UTF-8" standalone="no"?>
<!DOCTYPE svg PUBLIC "-//W3C//DTD SVG 1.1//EN" "http://www.w3.org/Graphics/SVG/1.1/DTD/svg11.dtd">
<svg xmlns="http://www.w3.org/2000/svg" version="1.1" viewBox="0.00 0.00 960.00 960.00">
<path fill="#fbbd2b" d="
  M 380.19 517.06
  C 322.69 461.73 324.16 366.44 384.77 313.53
  C 473.79 235.82 611.33 295.87 615.53 413.95
  Q 615.55 414.50 615.00 414.50
  L 473.15 414.50
  Q 472.74 414.50 472.74 414.91
  L 472.76 485.20
  A 1.02 1.02 0.0 0 0 473.76 486.22
  L 480.32 486.34
  Q 480.74 486.34 480.74 485.93
  L 480.74 422.75
  Q 480.74 422.49 481.00 422.49
  L 615.03 422.49
  Q 615.47 422.49 615.44 422.93
  Q 611.93 483.86 567.44 522.44
  C 513.23 569.46 431.76 566.70 380.19 517.06
  Z"
/>
<path fill="#fbbd2b" d="
  M 195.74 422.79
  L 195.75 537.00
  Q 195.75 537.50 195.25 537.50
  L 61.57 537.51
  Q 60.91 537.51 61.25 536.94
  Q 61.44 536.63 61.75 536.38
  Q 62.20 536.02 62.48 535.53
  L 199.56 298.13
  Q 199.68 297.92 199.80 298.12
  Q 268.96 417.83 337.00 535.33
  Q 337.55 536.28 338.17 537.19
  Q 338.38 537.51 338.00 537.51
  L 204.00 537.50
  A 0.50 0.50 0.0 0 1 203.50 537.00
  L 203.50 423.08
  Q 203.50 422.47 202.89 422.47
  L 196.02 422.51
  Q 195.74 422.51 195.74 422.79
  Z"
/>
<path fill="#fbbd2b" d="
  M 683.33 414.35
  L 621.72 307.75
  A 0.33 0.33 0.0 0 1 622.00 307.25
  L 897.48 307.25
  A 0.33 0.33 0.0 0 1 897.76 307.75
  L 836.22 414.31
  A 0.33 0.33 0.0 0 1 835.93 414.47
  L 683.62 414.51
  A 0.33 0.33 0.0 0 1 683.33 414.35
  Z"
/>
<path fill="#fbbd2b" d="
  M 688.18 422.46
  L 755.37 422.50
  Q 755.75 422.50 755.75 422.87
  L 755.76 539.51
  Q 755.76 539.89 755.57 539.56
  L 688.09 422.63
  Q 687.99 422.46 688.18 422.46
  Z"
/>
<path fill="#fbbd2b" d="
  M 764.14 422.48
  L 831.27 422.47
  Q 831.52 422.47 831.39 422.70
  Q 799.05 478.60 766.86 534.59
  Q 765.19 537.50 763.82 540.51
  A 0.05 0.05 0.0 0 1 763.73 540.49
  L 763.75 422.86
  Q 763.75 422.48 764.14 422.48
  Z"
/>
<path fill="#fbbd2b" d="
  M 152.82 653.25
  L 106.49 653.25
  A 0.34 0.34 0.0 0 0 106.18 653.45
  L 94.35 679.30
  A 0.34 0.34 0.0 0 1 94.04 679.50
  L 78.54 679.50
  A 0.34 0.34 0.0 0 1 78.24 679.02
  L 130.07 567.71
  A 0.34 0.34 0.0 0 1 130.68 567.72
  L 180.66 679.02
  A 0.34 0.34 0.0 0 1 180.35 679.50
  L 164.53 679.50
  A 0.34 0.34 0.0 0 1 164.22 679.29
  L 153.13 653.46
  A 0.34 0.34 0.0 0 0 152.82 653.25
  Z
  M 113.31 637.93
  A 0.68 0.68 0.0 0 0 113.92 638.89
  L 145.62 639.11
  A 0.68 0.68 0.0 0 0 146.25 638.16
  L 130.65 602.36
  A 0.68 0.68 0.0 0 0 129.41 602.36
  L 113.31 637.93
  Z"
/>
<path fill="#fbbd2b" d="
  M 245.98 636.96
  Q 245.47 631.02 245.85 625.06
  Q 245.88 624.50 246.44 624.50
  L 288.81 624.49
  Q 289.40 624.49 289.40 625.07
  Q 289.39 633.45 288.51 639.27
  C 281.20 687.40 221.21 694.92 195.20 657.79
  C 180.61 636.95 182.40 608.14 199.46 589.31
  C 213.06 574.30 232.25 568.26 252.43 572.11
  C 265.18 574.55 275.52 582.39 284.02 591.82
  Q 284.35 592.17 284.00 592.51
  L 273.66 602.42
  Q 273.30 602.77 273.02 602.36
  C 251.28 571.31 203.05 585.04 200.66 622.97
  C 199.67 638.66 205.92 651.66 219.07 660.45
  C 228.65 666.86 239.34 669.12 250.41 665.56
  C 261.49 662.01 272.05 651.42 272.65 638.94
  Q 272.68 638.42 272.16 638.43
  L 246.42 638.69
  A 0.65 0.64 -13.7 0 1 245.85 638.35
  Q 245.62 637.90 245.83 637.56
  Q 246.00 637.29 245.98 636.96
  Z"
/>
<path fill="#fbbd2b" d="
  M 299.25 586.97
  L 299.25 573.30
  A 0.30 0.30 0.0 0 1 299.55 573.00
  L 363.27 573.00
  A 0.30 0.30 0.0 0 1 363.57 573.30
  L 363.50 586.97
  A 0.30 0.30 0.0 0 1 363.20 587.27
  L 339.49 587.24
  A 0.30 0.30 0.0 0 0 339.19 587.54
  L 339.06 679.20
  A 0.30 0.30 0.0 0 1 338.76 679.50
  L 324.05 679.50
  A 0.30 0.30 0.0 0 1 323.75 679.20
  L 323.75 587.54
  A 0.30 0.30 0.0 0 0 323.45 587.24
  L 299.55 587.27
  A 0.30 0.30 0.0 0 1 299.25 586.97
  Z"
/>
<path fill="#fbbd2b" d="
  M 500.70 573.44
  L 453.78 620.00
  A 1.52 1.52 0.0 0 0 453.68 622.05
  L 501.40 679.30
  Q 501.61 679.55 501.28 679.55
  L 481.69 679.48
  Q 481.18 679.48 480.86 679.08
  L 442.93 632.32
  A 0.85 0.84 -29.5 0 0 441.98 632.06
  C 439.59 632.94 438.31 634.76 438.29 637.45
  Q 438.18 658.18 438.29 678.93
  Q 438.30 679.50 437.73 679.50
  L 423.75 679.50
  Q 423.25 679.50 423.25 679.00
  L 423.25 573.78
  Q 423.25 573.00 424.03 573.00
  L 437.64 573.00
  Q 438.27 573.00 438.27 573.64
  L 438.24 614.13
  A 1.00 1.00 0.0 0 0 439.95 614.83
  L 480.17 573.48
  Q 480.57 573.07 481.14 573.07
  L 500.50 572.95
  Q 501.20 572.95 500.70 573.44
  Z"
/>
<path fill="#fbbd2b" d="
  M 804.80 665.25
  L 847.24 665.25
  A 0.30 0.30 0.0 0 1 847.54 665.55
  L 847.48 679.20
  A 0.30 0.30 0.0 0 1 847.18 679.50
  L 789.55 679.50
  A 0.30 0.30 0.0 0 1 789.25 679.20
  L 789.25 573.30
  A 0.30 0.30 0.0 0 1 789.55 573.00
  L 847.20 573.00
  A 0.30 0.30 0.0 0 1 847.50 573.30
  L 847.50 586.96
  A 0.30 0.30 0.0 0 1 847.20 587.26
  L 804.80 587.24
  A 0.30 0.30 0.0 0 0 804.50 587.54
  L 804.50 613.70
  A 0.30 0.30 0.0 0 0 804.80 614.00
  L 845.95 614.00
  A 0.30 0.30 0.0 0 1 846.25 614.30
  L 846.25 627.95
  A 0.30 0.30 0.0 0 1 845.95 628.25
  L 804.80 628.25
  A 0.30 0.30 0.0 0 0 804.50 628.55
  L 804.50 664.95
  A 0.30 0.30 0.0 0 0 804.80 665.25
  Z"
/>
<path fill="#fbbd2b" d="
  M 577.50 675.47
  C 555.97 688.38 526.29 678.92 519.07 653.84
  Q 517.56 648.61 517.54 636.87
  Q 517.47 605.25 517.50 573.54
  Q 517.50 573.00 518.04 573.00
  L 532.00 573.00
  Q 532.58 573.00 532.57 573.57
  Q 532.40 603.79 532.54 634.00
  C 532.60 647.20 533.75 660.87 548.17 665.84
  Q 557.37 669.01 566.84 665.00
  C 577.99 660.28 580.55 650.58 580.62 639.44
  Q 580.83 606.31 580.71 573.40
  A 0.40 0.40 0.0 0 1 581.11 573.00
  L 595.45 573.00
  Q 595.96 573.00 595.97 573.51
  Q 596.05 606.66 596.07 639.73
  Q 596.08 664.32 577.50 675.47
  Z"
/>
<path fill="#fbbd2b" d="
  M 641.30 635.50
  L 638.24 635.50
  Q 637.73 635.50 637.73 636.01
  L 637.76 678.97
  Q 637.76 679.50 637.22 679.50
  L 623.37 679.50
  Q 622.75 679.50 622.75 678.87
  L 622.74 573.55
  Q 622.74 572.99 623.29 572.99
  C 642.15 572.99 669.90 569.81 679.23 591.01
  C 687.03 608.73 677.70 628.79 658.72 633.53
  A 0.73 0.73 0.0 0 0 658.31 634.67
  L 690.72 679.15
  Q 690.97 679.50 690.54 679.50
  L 673.28 679.50
  A 1.79 1.78 -17.2 0 1 671.81 678.73
  L 641.95 635.84
  Q 641.71 635.50 641.30 635.50
  Z
  M 637.60 587.59
  L 637.48 621.81
  A 0.37 0.37 0.0 0 0 637.85 622.18
  L 648.60 622.22
  A 18.34 15.89 0.2 0 0 666.99 606.39
  L 667.01 603.21
  A 18.34 15.89 0.2 0 0 648.72 587.26
  L 637.97 587.22
  A 0.37 0.37 0.0 0 0 637.60 587.59
  Z"
/>
<path fill="#fbbd2b" d="
  M 733.80 615.31
  L 757.73 573.45
  Q 757.99 573.00 758.51 573.00
  L 775.26 573.00
  Q 775.96 573.00 775.53 573.55
  C 774.89 574.37 774.14 575.13 773.66 575.98
  Q 757.65 603.75 741.59 631.50
  Q 740.54 633.31 740.53 635.41
  Q 740.41 657.18 740.56 678.94
  Q 740.56 679.50 740.00 679.50
  L 725.80 679.50
  Q 725.40 679.50 725.41 679.10
  Q 725.58 657.36 725.51 635.65
  Q 725.50 633.53 724.46 631.69
  Q 707.90 602.47 690.94 573.50
  Q 690.65 573.00 691.23 573.00
  L 706.69 573.00
  Q 708.15 573.00 708.88 574.27
  L 732.43 615.31
  A 0.79 0.79 0.0 0 0 733.80 615.31
  Z"
/>
</svg>
