<svg version="1.1" xmlns="http://www.w3.org/2000/svg" xmlns:xlink="http://www.w3.org/1999/xlink" x="0px" y="0px" style="enable-background:new 0 0 370 64;" xml:space="preserve" viewBox="1.41 11.66 143.62 46.17"> 	 	 	 	<path fill="#4285f4" d="M19.58,47.48c-9.87,0-18.17-8.04-18.17-17.91c0-9.87,8.3-17.91,18.17-17.91c5.46,0,9.35,2.14,12.27,4.94 		l-3.45,3.45c-2.1-1.97-4.93-3.49-8.82-3.49c-7.21,0-12.84,5.81-12.84,13.02c0,7.21,5.64,13.02,12.84,13.02 		c4.67,0,7.34-1.88,9.04-3.58c1.4-1.4,2.32-3.41,2.66-6.16H19.58v-4.89h16.47c0.18,0.87,0.26,1.92,0.26,3.06 		c0,3.67-1.01,8.21-4.24,11.44C28.93,45.73,24.91,47.48,19.58,47.48z"></path> 	<path fill="#ea4335" d="M61.78,35.95c0,6.64-5.1,11.53-11.36,11.53s-11.36-4.89-11.36-11.53c0-6.68,5.1-11.53,11.36-11.53 		S61.78,29.27,61.78,35.95z M56.8,35.95c0-4.15-2.96-6.99-6.39-6.99c-3.43,0-6.39,2.84-6.39,6.99c0,4.11,2.96,6.99,6.39,6.99 		C53.84,42.94,56.8,40.06,56.8,35.95z"></path> 	<path fill="#fbbc04" d="M87.25,35.95c0,6.64-5.1,11.53-11.36,11.53c-6.26,0-11.36-4.89-11.36-11.53c0-6.68,5.1-11.53,11.36-11.53 		C82.15,24.42,87.25,29.27,87.25,35.95z M82.28,35.95c0-4.15-2.96-6.99-6.39-6.99c-3.43,0-6.39,2.84-6.39,6.99 		c0,4.11,2.96,6.99,6.39,6.99C79.32,42.94,82.28,40.06,82.28,35.95z"></path> 	<path fill="#4285f4" d="M112.09,25.12v20.7c0,8.52-5.02,12.01-10.96,12.01c-5.59,0-8.95-3.76-10.22-6.81l4.41-1.83 		c0.79,1.88,2.71,4.1,5.81,4.1c3.8,0,6.16-2.36,6.16-6.77v-1.66h-0.18c-1.14,1.4-3.32,2.62-6.07,2.62c-5.76,0-11.05-5.02-11.05-11.49 		c0-6.51,5.28-11.57,11.05-11.57c2.75,0,4.93,1.22,6.07,2.58h0.18v-1.88H112.09z M107.64,35.99c0-4.06-2.71-7.03-6.16-7.03 		c-3.49,0-6.42,2.97-6.42,7.03c0,4.02,2.93,6.94,6.42,6.94C104.93,42.94,107.64,40.01,107.64,35.99z"></path> 	<rect x="115.9" y="12.89" fill="#34a853" width="5.07" height="33.89"></rect> 	<path fill="#ea4335" d="M140.89,39.75l3.93,2.62c-1.27,1.88-4.32,5.11-9.61,5.11c-6.55,0-11.28-5.07-11.28-11.53 		c0-6.86,4.77-11.53,10.71-11.53c5.98,0,8.91,4.76,9.87,7.34l0.52,1.31l-15.42,6.38c1.18,2.31,3.01,3.49,5.59,3.49 		C137.79,42.94,139.58,41.67,140.89,39.75z M128.79,35.6l10.31-4.28c-0.57-1.44-2.27-2.45-4.28-2.45 		C132.24,28.88,128.66,31.15,128.79,35.6z"></path> </svg>
