<svg xmlns="http://www.w3.org/2000/svg" version="1.1" style="shape-rendering:geometricPrecision; text-rendering:geometricPrecision; image-rendering:optimizeQuality; fill-rule:evenodd; clip-rule:evenodd" xmlns:xlink="http://www.w3.org/1999/xlink" viewBox="1726.5 5327.5 7273 3292"> <g><path style="opacity:0.999" fill="#ed1b24" d="M 8999.5,5327.5 C 8999.5,6424.83 8999.5,7522.17 8999.5,8619.5C 6575.17,8619.5 4150.83,8619.5 1726.5,8619.5C 1726.5,7522.17 1726.5,6424.83 1726.5,5327.5C 4150.83,5327.5 6575.17,5327.5 8999.5,5327.5 Z"></path></g> <g><path style="opacity:1" fill="#fffdfd" d="M 8625.5,5753.5 C 8697.84,5751.24 8752.34,5780.91 8789,5842.5C 8816.67,5897.81 8816,5952.81 8787,6007.5C 8749.69,6067.41 8695.53,6095.58 8624.5,6092C 8551.88,6082.45 8503.04,6043.28 8478,5974.5C 8458.87,5903.82 8476.04,5843.66 8529.5,5794C 8557.51,5771.05 8589.51,5757.55 8625.5,5753.5 Z"></path></g> <g><path style="opacity:1" fill="#ed1c24" d="M 8623.5,5783.5 C 8685.01,5779.83 8731.51,5804.17 8763,5856.5C 8789.41,5911.62 8784.41,5963.62 8748,6012.5C 8707,6057.63 8656.84,6072.47 8597.5,6057C 8549.6,6040.1 8518.43,6007.26 8504,5958.5C 8490.8,5891.39 8512.63,5839.23 8569.5,5802C 8586.51,5792.5 8604.51,5786.33 8623.5,5783.5 Z"></path></g> <g><path style="opacity:1" fill="#fac3c5" d="M 2574.5,5795.5 C 2391.83,5795.5 2209.17,5795.5 2026.5,5795.5C 2026.5,6597.5 2026.5,7399.5 2026.5,8201.5C 2025.5,7399.33 2025.17,6597 2025.5,5794.5C 2208.67,5794.17 2391.67,5794.5 2574.5,5795.5 Z"></path></g> <g><path style="opacity:1" fill="#fffefe" d="M 4740.5,7953.5 C 4740.84,7955.85 4741.34,7958.19 4742,7960.5C 4742.5,7241.83 4742.67,6523.17 4742.5,5804.5C 4981.33,5803.33 5220.33,5803.17 5459.5,5804C 5518.57,5820.17 5571.9,5847.17 5619.5,5885C 5677.83,5931.97 5726,5987.47 5764,6051.5C 5789.69,6095.57 5811.36,6141.57 5829,6189.5C 5829.67,6186.5 5829.67,6183.5 5829,6180.5C 5811.64,6051.86 5794.47,5923.19 5777.5,5794.5C 5922.07,5794.17 6066.57,5794.5 6211,5795.5C 6278.83,6209.79 6346.33,6624.13 6413.5,7038.5C 6414.25,7043.48 6414.91,7043.15 6415.5,7037.5C 6485.83,6626.17 6556.17,6214.84 6626.5,5803.5C 7033.5,5803.5 7440.5,5803.5 7847.5,5803.5C 7847.5,5954.17 7847.5,6104.83 7847.5,6255.5C 7726.83,6255.5 7606.17,6255.5 7485.5,6255.5C 7485.5,6420.5 7485.5,6585.5 7485.5,6750.5C 7600.17,6750.5 7714.83,6750.5 7829.5,6750.5C 7829.5,6918.5 7829.5,7086.5 7829.5,7254.5C 7717.33,7254.17 7605.33,7254.5 7493.5,7255.5C 7493.5,7408.83 7493.5,7562.17 7493.5,7715.5C 7611.5,7715.5 7729.5,7715.5 7847.5,7715.5C 7847.5,7877.5 7847.5,8039.5 7847.5,8201.5C 7585.17,8201.5 7322.83,8201.5 7060.5,8201.5C 7060.67,7429.17 7060.5,6656.83 7060,5884.5C 7059.3,5887.48 7058.8,5890.48 7058.5,5893.5C 6923.07,6662.75 6788.07,7432.09 6653.5,8201.5C 6491.17,8201.5 6328.83,8201.5 6166.5,8201.5C 6081.33,7688.79 5995.83,7176.12 5910,6663.5C 5892.98,6790.58 5858.98,6912.92 5808,7030.5C 5776.18,7102.22 5734.85,7167.56 5684,7226.5C 5668.1,7244.4 5650.93,7260.9 5632.5,7276C 5630.23,7277.77 5628.56,7279.93 5627.5,7282.5C 5730.5,7588.49 5833.5,7894.49 5936.5,8200.5C 5794.83,8201.83 5653.17,8201.83 5511.5,8200.5C 5411.63,7933.55 5311.96,7666.55 5212.5,7399.5C 5212.22,7398.71 5211.72,7398.04 5211,7397.5C 5210.5,7665.5 5210.33,7933.5 5210.5,8201.5C 4924.5,8201.5 4638.5,8201.5 4352.5,8201.5C 4338.02,8124.94 4323.35,8048.44 4308.5,7972C 4199.17,7971.5 4089.83,7971.33 3980.5,7971.5C 3957.58,8047.94 3934.24,8124.27 3910.5,8200.5C 3639.17,8201.5 3367.83,8201.83 3096.5,8201.5C 3096.67,7906.83 3096.5,7612.17 3096,7317.5C 3095.34,7319.81 3094.84,7322.15 3094.5,7324.5C 3024.1,7616.71 2954.1,7909.04 2884.5,8201.5C 2810.5,8201.5 2736.5,8201.5 2662.5,8201.5C 2598.32,7911.11 2533.99,7620.78 2469.5,7330.5C 2469.29,7329.08 2468.79,7327.74 2468,7326.5C 2467.5,7615.17 2467.33,7903.83 2467.5,8192.5C 2462.31,8192.18 2457.31,8192.51 2452.5,8193.5C 2310.5,8196 2168.5,8198.66 2026.5,8201.5C 2026.5,7399.5 2026.5,6597.5 2026.5,5795.5C 2209.17,5795.5 2391.83,5795.5 2574.5,5795.5C 2639.19,6131.17 2704.03,6466.84 2769,6802.5C 2842.4,6466.57 2916.24,6130.91 2990.5,5795.5C 3167.17,5795.5 3343.83,5795.5 3520.5,5795.5C 3520.33,6517.5 3520.5,7239.5 3521,7961.5C 3521.98,7959.26 3522.48,7956.93 3522.5,7954.5C 3636.57,7234.78 3751.07,6515.11 3866,5795.5C 3955.93,5794.83 4045.93,5794.5 4136,5794.5C 4226.07,5794.5 4316.07,5794.83 4406,5795.5C 4517.83,6514.8 4629.33,7234.13 4740.5,7953.5 Z"></path></g> <g><path style="opacity:1" fill="#fefefe" d="M 8007.5,5795.5 C 8142.83,5795.5 8278.17,5795.5 8413.5,5795.5C 8413.17,6438.33 8413.5,7081 8414.5,7723.5C 8529,7724.5 8643.67,7724.83 8758.5,7724.5C 8758.5,7886.5 8758.5,8048.5 8758.5,8210.5C 8508.17,8210.5 8257.83,8210.5 8007.5,8210.5C 8007.5,7405.5 8007.5,6600.5 8007.5,5795.5 Z"></path></g> <g><path style="opacity:1" fill="#f6989d" d="M 8007.5,5795.5 C 8143,5794.5 8278.67,5794.17 8414.5,5794.5C 8414.5,6437.5 8414.5,7080.5 8414.5,7723.5C 8413.5,7081 8413.17,6438.33 8413.5,5795.5C 8278.17,5795.5 8142.83,5795.5 8007.5,5795.5 Z"></path></g> <g><path style="opacity:1" fill="#f4787d" d="M 4742.5,5804.5 C 4742.67,6523.17 4742.5,7241.83 4742,7960.5C 4741.34,7958.19 4740.84,7955.85 4740.5,7953.5C 4741.17,7237.17 4741.83,6520.83 4742.5,5804.5 Z"></path></g> <g><path style="opacity:1" fill="#fffdfd" d="M 8633.5,5931.5 C 8622.68,5930.51 8611.68,5930.17 8600.5,5930.5C 8600.5,5954.5 8600.5,5978.5 8600.5,6002.5C 8593.69,6003.49 8586.69,6003.82 8579.5,6003.5C 8579.5,5949.17 8579.5,5894.83 8579.5,5840.5C 8608.84,5840.33 8638.17,5840.5 8667.5,5841C 8694.22,5843.88 8707.88,5858.72 8708.5,5885.5C 8708.16,5905 8698.83,5918.17 8680.5,5925C 8674.97,5926.95 8669.31,5928.29 8663.5,5929C 8672.8,5933.73 8680.63,5940.23 8687,5948.5C 8698.89,5966.06 8710.39,5983.9 8721.5,6002C 8712.48,6002.83 8703.48,6002.67 8694.5,6001.5C 8682.26,5981.76 8669.42,5962.43 8656,5943.5C 8650.11,5936.47 8642.61,5932.47 8633.5,5931.5 Z"></path></g> <g><path style="opacity:1" fill="#ed1b24" d="M 8601.5,5858.5 C 8621.5,5858.33 8641.5,5858.5 8661.5,5859C 8685.26,5864.36 8692.1,5878.2 8682,5900.5C 8674.63,5908.48 8665.46,5912.14 8654.5,5911.5C 8636.83,5911.5 8619.17,5911.5 8601.5,5911.5C 8601.5,5893.83 8601.5,5876.17 8601.5,5858.5 Z"></path></g> <g><path style="opacity:1" fill="#f0484f" d="M 7060.5,8201.5 C 7059.83,7432.17 7059.17,6662.83 7058.5,5893.5C 7058.8,5890.48 7059.3,5887.48 7060,5884.5C 7060.5,6656.83 7060.67,7429.17 7060.5,8201.5 Z"></path></g> <g><path style="opacity:1" fill="#f2595f" d="M 8601.5,5858.5 C 8601.5,5876.17 8601.5,5893.83 8601.5,5911.5C 8619.17,5911.5 8636.83,5911.5 8654.5,5911.5C 8636.67,5912.5 8618.67,5912.83 8600.5,5912.5C 8600.17,5894.33 8600.5,5876.33 8601.5,5858.5 Z"></path></g> <g><path style="opacity:1" fill="#f3686d" d="M 8633.5,5931.5 C 8622.83,5931.5 8612.17,5931.5 8601.5,5931.5C 8601.83,5955.34 8601.5,5979.01 8600.5,6002.5C 8600.5,5978.5 8600.5,5954.5 8600.5,5930.5C 8611.68,5930.17 8622.68,5930.51 8633.5,5931.5 Z"></path></g> <g><path style="opacity:1" fill="#f6969b" d="M 2990.5,5795.5 C 3167.33,5794.5 3344.33,5794.17 3521.5,5794.5C 3521.17,6514.67 3521.5,7234.67 3522.5,7954.5C 3522.48,7956.93 3521.98,7959.26 3521,7961.5C 3520.5,7239.5 3520.33,6517.5 3520.5,5795.5C 3343.83,5795.5 3167.17,5795.5 2990.5,5795.5 Z"></path></g> <g><path style="opacity:1" fill="#ed1b24" d="M 5202.5,6228.5 C 5260.58,6230.38 5310.58,6251.22 5352.5,6291C 5388.58,6327.46 5415.41,6369.96 5433,6418.5C 5452.67,6472.87 5464.51,6528.87 5468.5,6586.5C 5468.16,6646.06 5458.66,6704.06 5440,6760.5C 5421.77,6815.69 5389.94,6861.19 5344.5,6897C 5303.1,6925.86 5257.1,6941.69 5206.5,6944.5C 5205.17,6944.5 5203.83,6944.5 5202.5,6944.5C 5202.5,6705.83 5202.5,6467.17 5202.5,6228.5 Z"></path></g> <g><path style="opacity:1" fill="#f9b9bb" d="M 5202.5,6228.5 C 5202.5,6467.17 5202.5,6705.83 5202.5,6944.5C 5203.83,6944.5 5205.17,6944.5 5206.5,6944.5C 5205.08,6945.45 5203.41,6945.78 5201.5,6945.5C 5201.17,6706.33 5201.5,6467.33 5202.5,6228.5 Z"></path></g> <g><path style="opacity:1" fill="#f67d7f" d="M 4141.5,6773.5 C 4140.83,6773.5 4140.17,6773.5 4139.5,6773.5C 4140.17,6768.17 4140.83,6768.17 4141.5,6773.5 Z"></path></g> <g><path style="opacity:1" fill="#ed1c24" d="M 4139.5,6773.5 C 4140.17,6773.5 4140.83,6773.5 4141.5,6773.5C 4182.6,7015.43 4223.27,7257.43 4263.5,7499.5C 4263.5,7500.5 4263.5,7501.5 4263.5,7502.5C 4187.17,7502.5 4110.83,7502.5 4034.5,7502.5C 4069.03,7259.44 4104.03,7016.44 4139.5,6773.5 Z"></path></g> <g><path style="opacity:1" fill="#fbb0b2" d="M 6415.5,7037.5 C 6414.91,7043.15 6414.25,7043.48 6413.5,7038.5C 6414.17,7038.17 6414.83,7037.83 6415.5,7037.5 Z"></path></g> <g><path style="opacity:1" fill="#f69498" d="M 7829.5,6750.5 C 7830.5,6918.67 7830.83,7087 7830.5,7255.5C 7718.5,7255.5 7606.5,7255.5 7494.5,7255.5C 7494.17,7255.5 7493.83,7255.5 7493.5,7255.5C 7605.33,7254.5 7717.33,7254.17 7829.5,7254.5C 7829.5,7086.5 7829.5,6918.5 7829.5,6750.5 Z"></path></g> <g><path style="opacity:1" fill="#f8a8ab" d="M 2469.5,7330.5 C 2468.5,7618 2468.17,7905.67 2468.5,8193.5C 2463.17,8193.5 2457.83,8193.5 2452.5,8193.5C 2457.31,8192.51 2462.31,8192.18 2467.5,8192.5C 2467.33,7903.83 2467.5,7615.17 2468,7326.5C 2468.79,7327.74 2469.29,7329.08 2469.5,7330.5 Z"></path></g> <g><path style="opacity:1" fill="#fac6c8" d="M 4263.5,7499.5 C 4264.43,7500.57 4264.77,7501.9 4264.5,7503.5C 4187.66,7503.83 4111,7503.5 4034.5,7502.5C 4110.83,7502.5 4187.17,7502.5 4263.5,7502.5C 4263.5,7501.5 4263.5,7500.5 4263.5,7499.5 Z"></path></g> <g><path style="opacity:1" fill="#f6969a" d="M 5212.5,7399.5 C 5211.83,7666.83 5211.17,7934.17 5210.5,8201.5C 5210.33,7933.5 5210.5,7665.5 5211,7397.5C 5211.72,7398.04 5212.22,7398.71 5212.5,7399.5 Z"></path></g> <g><path style="opacity:1" fill="#f58186" d="M 7493.5,7255.5 C 7493.83,7255.5 7494.17,7255.5 7494.5,7255.5C 7494.5,7408.5 7494.5,7561.5 7494.5,7714.5C 7612.33,7714.17 7730,7714.5 7847.5,7715.5C 7729.5,7715.5 7611.5,7715.5 7493.5,7715.5C 7493.5,7562.17 7493.5,7408.83 7493.5,7255.5 Z"></path></g> <g><path style="opacity:1" fill="#ef3e46" d="M 3096.5,8201.5 C 3095.83,7909.17 3095.17,7616.83 3094.5,7324.5C 3094.84,7322.15 3095.34,7319.81 3096,7317.5C 3096.5,7612.17 3096.67,7906.83 3096.5,8201.5 Z"></path></g> <g><path style="opacity:1" fill="#f9b4b7" d="M 8414.5,7723.5 C 8529.5,7723.5 8644.5,7723.5 8759.5,7723.5C 8759.83,7886 8759.5,8048.33 8758.5,8210.5C 8758.5,8048.5 8758.5,7886.5 8758.5,7724.5C 8643.67,7724.83 8529,7724.5 8414.5,7723.5 Z"></path></g> </svg>