<?xml version="1.0" encoding="UTF-8"?>
<!DOCTYPE svg PUBLIC "-//W3C//DTD SVG 1.1//EN" "http://www.w3.org/Graphics/SVG/1.1/DTD/svg11.dtd">
<svg xmlns="http://www.w3.org/2000/svg" version="1.1" width="835px" height="783px" style="shape-rendering:geometricPrecision; text-rendering:geometricPrecision; image-rendering:optimizeQuality; fill-rule:evenodd; clip-rule:evenodd" xmlns:xlink="http://www.w3.org/1999/xlink">
<g><path style="opacity:0.993" fill="#da774b" d="M 178.5,-0.5 C 183.167,-0.5 187.833,-0.5 192.5,-0.5C 192.833,0.5 193.5,1.16667 194.5,1.5C 194.631,2.23891 194.464,2.90558 194,3.5C 191.687,1.96256 189.187,1.46256 186.5,2C 188.64,2.97329 190.307,4.47329 191.5,6.5C 193.781,7.27665 195.948,8.27665 198,9.5C 198.494,11.1341 198.66,12.8008 198.5,14.5C 198.206,17.7541 196.873,20.4208 194.5,22.5C 192.338,18.8598 190.838,14.8598 190,10.5C 187.633,7.06816 184.966,6.73483 182,9.5C 181.826,14.6835 181.326,19.6835 180.5,24.5C 177.593,23.2659 175.259,21.2659 173.5,18.5C 172.691,16.9291 172.357,15.2624 172.5,13.5C 173.089,9.53882 174.422,5.87216 176.5,2.5C 177.167,1.5 177.833,0.5 178.5,-0.5 Z"/></g>
<g><path style="opacity:0.918" fill="#02516d" d="M 194.5,22.5 C 207.757,64.4397 220.924,106.44 234,148.5C 253.776,137.698 273.276,126.531 292.5,115C 354.237,114.83 415.904,114.33 477.5,113.5C 485.5,114.833 493.5,114.833 501.5,113.5C 520.093,114.32 538.76,114.82 557.5,115C 579.26,127.05 600.927,139.383 622.5,152C 624.036,155.24 623.703,158.24 621.5,161C 600.836,161.5 580.169,161.667 559.5,161.5C 559.389,160.883 559.056,160.383 558.5,160C 533.997,159.17 509.663,159.337 485.5,160.5C 485.5,160.833 485.5,161.167 485.5,161.5C 408.5,161.5 331.5,161.5 254.5,161.5C 253.161,159.009 251.161,157.176 248.5,156C 241.174,155.5 233.841,155.334 226.5,155.5C 226.5,160.167 226.5,164.833 226.5,169.5C 221.821,169.334 217.155,169.501 212.5,170C 212,170.5 211.5,171 211,171.5C 210.333,185.5 210.333,199.5 211,213.5C 211.5,214 212,214.5 212.5,215C 217.155,215.499 221.821,215.666 226.5,215.5C 226.831,222.863 226.497,230.197 225.5,237.5C 224.817,237.863 224.15,238.196 223.5,238.5C 212.833,238.5 202.167,238.5 191.5,238.5C 191.171,251.011 191.505,263.345 192.5,275.5C 190,279.197 189,283.364 189.5,288C 189.519,291.252 190.186,294.085 191.5,296.5C 191.5,307.833 191.5,319.167 191.5,330.5C 190.007,334.315 189.34,338.315 189.5,342.5C 189.522,345.59 190.188,348.257 191.5,350.5C 191.5,361.833 191.5,373.167 191.5,384.5C 189.978,388.82 189.312,393.32 189.5,398C 189.515,401.576 190.182,404.742 191.5,407.5C 191.5,418.833 191.5,430.167 191.5,441.5C 189.956,445.109 189.29,448.943 189.5,453C 189.519,456.252 190.186,459.085 191.5,461.5C 191.5,472.833 191.5,484.167 191.5,495.5C 189.281,501.844 188.948,508.344 190.5,515C 200.912,515.155 210.579,515.655 219.5,516.5C 210.167,516.5 200.833,516.5 191.5,516.5C 191.172,527.679 191.505,538.679 192.5,549.5C 189.957,552.779 188.957,556.612 189.5,561C 189.667,563.833 189.833,566.667 190,569.5C 190.383,570.056 190.883,570.389 191.5,570.5C 191.5,581.833 191.5,593.167 191.5,604.5C 189.47,610.626 188.97,616.959 190,623.5C 190.383,624.056 190.883,624.389 191.5,624.5C 191.5,635.833 191.5,647.167 191.5,658.5C 189.463,664.932 188.963,671.598 190,678.5C 190.383,679.056 190.883,679.389 191.5,679.5C 191.172,690.679 191.505,701.679 192.5,712.5C 191.878,713.627 191.045,714.627 190,715.5C 189.501,719.821 189.334,724.154 189.5,728.5C 186.391,728.736 183.391,728.403 180.5,727.5C 180.5,538.833 180.5,350.167 180.5,161.5C 162.167,161.5 143.833,161.5 125.5,161.5C 113.519,160.168 101.185,159.501 88.5,159.5C 75.9954,159.5 63.6621,159.833 51.5,160.5C 51.5,160.833 51.5,161.167 51.5,161.5C 42.5,161.5 33.5,161.5 24.5,161.5C 19.6835,160.674 14.6835,160.174 9.5,160C 7.14994,157.627 6.98327,155.127 9,152.5C 11.5,150.667 14,148.833 16.5,147C 17.8228,146.184 18.4894,145.017 18.5,143.5C 29.9781,134.051 41.6448,124.551 53.5,115C 76.8333,114.333 100.167,114.333 123.5,115C 142.329,125.247 160.995,135.747 179.5,146.5C 180.5,105.839 180.833,65.1721 180.5,24.5C 181.326,19.6835 181.826,14.6835 182,9.5C 184.966,6.73483 187.633,7.06816 190,10.5C 190.838,14.8598 192.338,18.8598 194.5,22.5 Z M 206.5,97.5 C 201.5,97.5 196.5,97.5 191.5,97.5C 191.333,81.8298 191.5,66.1631 192,50.5C 197.891,65.8769 202.725,81.5436 206.5,97.5 Z M 210.5,106.5 C 212.829,115.157 215.163,123.823 217.5,132.5C 210.802,123.948 203.802,115.448 196.5,107C 201.155,106.501 205.821,106.334 210.5,106.5 Z M 191.5,117.5 C 201.157,128.793 210.823,140.126 220.5,151.5C 210.833,151.5 201.167,151.5 191.5,151.5C 191.5,140.167 191.5,128.833 191.5,117.5 Z M 76.5,125.5 C 89.6562,124.504 102.99,124.171 116.5,124.5C 116.666,132.174 116.5,139.841 116,147.5C 102.828,140.001 89.661,132.668 76.5,125.5 Z M 364.5,124.5 C 378.01,124.171 391.344,124.504 404.5,125.5C 391.303,132.684 378.136,140.018 365,147.5C 364.5,139.841 364.334,132.174 364.5,124.5 Z M 339.5,125.5 C 326.595,132.784 313.595,139.784 300.5,146.5C 300.5,139.167 300.5,131.833 300.5,124.5C 313.677,124.171 326.677,124.505 339.5,125.5 Z M 429.5,124.5 C 443.01,124.171 456.344,124.504 469.5,125.5C 456.33,132.672 443.163,140.005 430,147.5C 429.5,139.841 429.334,132.174 429.5,124.5 Z M 501.5,124.5 C 512.679,124.172 523.679,124.505 534.5,125.5C 521.156,132.505 507.822,139.505 494.5,146.5C 494.221,141.405 494.555,136.405 495.5,131.5C 498.932,130.401 500.932,128.067 501.5,124.5 Z M 101.5,150.5 C 88.0102,151.496 74.3435,151.829 60.5,151.5C 60.3336,143.493 60.5003,135.493 61,127.5C 74.6406,135.066 88.1406,142.733 101.5,150.5 Z M 125.5,127.5 C 139.041,135.538 152.707,143.371 166.5,151C 152.837,151.5 139.171,151.667 125.5,151.5C 125.5,143.5 125.5,135.5 125.5,127.5 Z M 355.5,151.5 C 341.656,151.829 327.99,151.496 314.5,150.5C 328.221,143.223 341.721,135.556 355,127.5C 355.5,135.493 355.666,143.493 355.5,151.5 Z M 420.5,151.5 C 406.656,151.829 392.99,151.496 379.5,150.5C 393.157,143.251 406.657,135.584 420,127.5C 420.5,135.493 420.666,143.493 420.5,151.5 Z M 549.5,151.5 C 535.99,151.829 522.656,151.496 509.5,150.5C 522.786,143.05 535.952,135.383 549,127.5C 549.5,135.493 549.666,143.493 549.5,151.5 Z M 290.5,128.5 C 290.5,136.167 290.5,143.833 290.5,151.5C 277.163,151.667 263.829,151.5 250.5,151C 263.504,142.81 276.837,135.31 290.5,128.5 Z M 559.5,128.5 C 572.651,136.112 585.985,143.612 599.5,151C 586.171,151.5 572.837,151.667 559.5,151.5C 559.5,143.833 559.5,136.167 559.5,128.5 Z M 51.5,130.5 C 51.5,137.5 51.5,144.5 51.5,151.5C 43.16,151.666 34.8267,151.5 26.5,151C 34.7071,143.954 43.0404,137.121 51.5,130.5 Z M 481.5,130.5 C 482.391,131.11 483.391,131.443 484.5,131.5C 485.46,138.078 485.793,144.745 485.5,151.5C 471.656,151.829 457.99,151.496 444.5,150.5C 456.642,143.594 468.975,136.927 481.5,130.5 Z"/></g>
<g><path style="opacity:0.97" fill="#404143" d="M 194.5,1.5 C 279.702,33.0588 365.369,63.5588 451.5,93C 463.384,97.2337 475.05,101.734 486.5,106.5C 484.703,107.73 482.703,108.396 480.5,108.5C 478.143,108.663 475.81,108.497 473.5,108C 382.273,75.5715 291.106,43.0715 200,10.5C 199.79,12.0581 199.29,13.3915 198.5,14.5C 198.66,12.8008 198.494,11.1341 198,9.5C 195.948,8.27665 193.781,7.27665 191.5,6.5C 190.307,4.47329 188.64,2.97329 186.5,2C 189.187,1.46256 191.687,1.96256 194,3.5C 194.464,2.90558 194.631,2.23891 194.5,1.5 Z"/></g>
<g><path style="opacity:0.817" fill="#404142" d="M 176.5,2.5 C 174.422,5.87216 173.089,9.53882 172.5,13.5C 120.742,56.2083 68.742,99.2083 16.5,142.5C 12.0033,142.994 7.67001,143.994 3.5,145.5C 60.539,97.7116 118.206,50.0449 176.5,2.5 Z"/></g>
<g><path style="opacity:0.958" fill="#0392d0" d="M 191.5,97.5 C 196.5,97.5 201.5,97.5 206.5,97.5C 207.497,97.4701 208.164,97.9701 208.5,99C 209.249,101.497 209.916,103.997 210.5,106.5C 205.821,106.334 201.155,106.501 196.5,107C 203.802,115.448 210.802,123.948 217.5,132.5C 221.387,137.815 223.72,143.815 224.5,150.5C 223.311,151.429 221.978,151.762 220.5,151.5C 210.823,140.126 201.157,128.793 191.5,117.5C 190.007,113.685 189.34,109.685 189.5,105.5C 189.522,102.41 190.188,99.7432 191.5,97.5 Z"/></g>
<g><path style="opacity:0.984" fill="#df784a" d="M 486.5,106.5 C 493.378,105.22 498.378,107.553 501.5,113.5C 493.5,114.833 485.5,114.833 477.5,113.5C 478.925,112.078 479.925,110.411 480.5,108.5C 482.703,108.396 484.703,107.73 486.5,106.5 Z"/></g>
<g><path style="opacity:0.999" fill="#0292d1" d="M 76.5,125.5 C 89.661,132.668 102.828,140.001 116,147.5C 116.5,139.841 116.666,132.174 116.5,124.5C 117.601,123.402 118.934,123.235 120.5,124C 122.233,125.189 123.9,126.356 125.5,127.5C 125.5,135.5 125.5,143.5 125.5,151.5C 117.414,151.801 109.414,151.467 101.5,150.5C 88.1406,142.733 74.6406,135.066 61,127.5C 60.5003,135.493 60.3336,143.493 60.5,151.5C 57.5,151.5 54.5,151.5 51.5,151.5C 51.5,144.5 51.5,137.5 51.5,130.5C 52.5914,127.572 54.5914,125.406 57.5,124C 63.1667,123.333 68.8333,123.333 74.5,124C 75.0442,124.717 75.7109,125.217 76.5,125.5 Z M 76.5,125.5 C 89.6562,124.504 102.99,124.171 116.5,124.5C 116.666,132.174 116.5,139.841 116,147.5C 102.828,140.001 89.661,132.668 76.5,125.5 Z M 101.5,150.5 C 88.0102,151.496 74.3435,151.829 60.5,151.5C 60.3336,143.493 60.5003,135.493 61,127.5C 74.6406,135.066 88.1406,142.733 101.5,150.5 Z"/></g>
<g><path style="opacity:0.999" fill="#0292d1" d="M 300.5,146.5 C 313.595,139.784 326.595,132.784 339.5,125.5C 340.473,125.013 341.473,124.513 342.5,124C 350.012,123.178 357.345,123.345 364.5,124.5C 364.334,132.174 364.5,139.841 365,147.5C 378.136,140.018 391.303,132.684 404.5,125.5C 405.473,125.013 406.473,124.513 407.5,124C 415.012,123.178 422.345,123.345 429.5,124.5C 429.334,132.174 429.5,139.841 430,147.5C 443.163,140.005 456.33,132.672 469.5,125.5C 470.473,125.013 471.473,124.513 472.5,124C 479.492,123.5 486.492,123.334 493.5,123.5C 492.964,126.698 493.631,129.365 495.5,131.5C 494.555,136.405 494.221,141.405 494.5,146.5C 507.822,139.505 521.156,132.505 534.5,125.5C 535.289,125.217 535.956,124.717 536.5,124C 542.167,123.333 547.833,123.333 553.5,124C 556.106,124.792 558.106,126.292 559.5,128.5C 559.5,136.167 559.5,143.833 559.5,151.5C 556.167,151.5 552.833,151.5 549.5,151.5C 549.666,143.493 549.5,135.493 549,127.5C 535.952,135.383 522.786,143.05 509.5,150.5C 506.328,151.126 503.161,151.793 500,152.5C 495.268,151.62 490.434,151.287 485.5,151.5C 485.793,144.745 485.46,138.078 484.5,131.5C 485.613,130.054 485.78,128.387 485,126.5C 482.929,127.103 481.762,128.436 481.5,130.5C 468.975,136.927 456.642,143.594 444.5,150.5C 441.66,151.12 438.826,151.787 436,152.5C 430.95,151.531 425.783,151.197 420.5,151.5C 420.666,143.493 420.5,135.493 420,127.5C 406.657,135.584 393.157,143.251 379.5,150.5C 371.485,152.251 363.485,152.584 355.5,151.5C 355.666,143.493 355.5,135.493 355,127.5C 341.721,135.556 328.221,143.223 314.5,150.5C 306.586,151.467 298.586,151.801 290.5,151.5C 290.5,143.833 290.5,136.167 290.5,128.5C 292.453,125.022 295.453,123.355 299.5,123.5C 299.159,132.561 299.492,140.228 300.5,146.5 Z M 364.5,124.5 C 378.01,124.171 391.344,124.504 404.5,125.5C 391.303,132.684 378.136,140.018 365,147.5C 364.5,139.841 364.334,132.174 364.5,124.5 Z M 339.5,125.5 C 326.595,132.784 313.595,139.784 300.5,146.5C 300.5,139.167 300.5,131.833 300.5,124.5C 313.677,124.171 326.677,124.505 339.5,125.5 Z M 429.5,124.5 C 443.01,124.171 456.344,124.504 469.5,125.5C 456.33,132.672 443.163,140.005 430,147.5C 429.5,139.841 429.334,132.174 429.5,124.5 Z M 501.5,124.5 C 512.679,124.172 523.679,124.505 534.5,125.5C 521.156,132.505 507.822,139.505 494.5,146.5C 494.221,141.405 494.555,136.405 495.5,131.5C 498.932,130.401 500.932,128.067 501.5,124.5 Z M 355.5,151.5 C 341.656,151.829 327.99,151.496 314.5,150.5C 328.221,143.223 341.721,135.556 355,127.5C 355.5,135.493 355.666,143.493 355.5,151.5 Z M 420.5,151.5 C 406.656,151.829 392.99,151.496 379.5,150.5C 393.157,143.251 406.657,135.584 420,127.5C 420.5,135.493 420.666,143.493 420.5,151.5 Z M 549.5,151.5 C 535.99,151.829 522.656,151.496 509.5,150.5C 522.786,143.05 535.952,135.383 549,127.5C 549.5,135.493 549.666,143.493 549.5,151.5 Z M 481.5,130.5 C 482.391,131.11 483.391,131.443 484.5,131.5C 485.46,138.078 485.793,144.745 485.5,151.5C 471.656,151.829 457.99,151.496 444.5,150.5C 456.642,143.594 468.975,136.927 481.5,130.5 Z"/></g>
<g><path style="opacity:0.999" fill="#c77855" d="M 493.5,123.5 C 496.385,123.194 499.052,123.527 501.5,124.5C 500.932,128.067 498.932,130.401 495.5,131.5C 493.631,129.365 492.964,126.698 493.5,123.5 Z"/></g>
<g><path style="opacity:0.982" fill="#d47950" d="M 484.5,131.5 C 483.391,131.443 482.391,131.11 481.5,130.5C 481.762,128.436 482.929,127.103 485,126.5C 485.78,128.387 485.613,130.054 484.5,131.5 Z"/></g>
<g><path style="opacity:0.992" fill="#da784c" d="M 16.5,142.5 C 16.8417,143.338 17.5084,143.672 18.5,143.5C 18.4894,145.017 17.8228,146.184 16.5,147C 14,148.833 11.5,150.667 9,152.5C 6.98327,155.127 7.14994,157.627 9.5,160C 14.6835,160.174 19.6835,160.674 24.5,161.5C 19.3316,169.704 12.3316,171.537 3.5,167C 1.92975,165.603 0.596413,164.103 -0.5,162.5C -0.5,157.833 -0.5,153.167 -0.5,148.5C 0.871651,147.488 2.20498,146.488 3.5,145.5C 7.67001,143.994 12.0033,142.994 16.5,142.5 Z"/></g>
<g><path style="opacity:1" fill="#1394d1" d="M 254.5,161.5 C 254.5,164.167 254.5,166.833 254.5,169.5C 253.833,169.5 253.167,169.5 252.5,169.5C 243.833,169.5 235.167,169.5 226.5,169.5C 226.5,164.833 226.5,160.167 226.5,155.5C 233.841,155.334 241.174,155.5 248.5,156C 251.161,157.176 253.161,159.009 254.5,161.5 Z"/></g>
<g><path style="opacity:0.994" fill="#9c9c9c" d="M 51.5,160.5 C 63.8333,160.5 76.1667,160.5 88.5,160.5C 88.5,172.5 88.5,184.5 88.5,196.5C 76.3217,196.172 64.3217,196.505 52.5,197.5C 51.5049,185.678 51.1716,173.678 51.5,161.5C 51.5,161.167 51.5,160.833 51.5,160.5 Z"/></g>
<g><path style="opacity:0.986" fill="#686969" d="M 51.5,160.5 C 63.6621,159.833 75.9954,159.5 88.5,159.5C 101.185,159.501 113.519,160.168 125.5,161.5C 125.5,173.5 125.5,185.5 125.5,197.5C 101.167,197.5 76.8333,197.5 52.5,197.5C 64.3217,196.505 76.3217,196.172 88.5,196.5C 88.5,184.5 88.5,172.5 88.5,160.5C 76.1667,160.5 63.8333,160.5 51.5,160.5 Z"/></g>
<g><path style="opacity:1" fill="#65696b" d="M 485.5,160.5 C 509.663,159.337 533.997,159.17 558.5,160C 559.056,160.383 559.389,160.883 559.5,161.5C 559.5,165.167 559.5,168.833 559.5,172.5C 556.167,172.5 552.833,172.5 549.5,172.5C 548.791,171.596 547.791,171.263 546.5,171.5C 543.924,170.296 541.424,168.962 539,167.5C 536.725,167.278 535.559,168.278 535.5,170.5C 533.302,170.12 531.635,170.787 530.5,172.5C 524.833,172.5 519.167,172.5 513.5,172.5C 513.5,172.167 513.5,171.833 513.5,171.5C 516.287,170.523 519.287,170.19 522.5,170.5C 522.5,167.167 522.5,163.833 522.5,160.5C 510.167,160.5 497.833,160.5 485.5,160.5 Z"/></g>
<g><path style="opacity:1" fill="#a1a6a6" d="M 485.5,160.5 C 497.833,160.5 510.167,160.5 522.5,160.5C 522.5,163.833 522.5,167.167 522.5,170.5C 519.287,170.19 516.287,170.523 513.5,171.5C 511.958,170.699 510.292,170.366 508.5,170.5C 508.516,168.516 507.516,167.516 505.5,167.5C 503.583,167.754 502.249,168.754 501.5,170.5C 499.901,170.232 498.568,170.566 497.5,171.5C 496.508,171.328 495.842,171.662 495.5,172.5C 492.167,172.5 488.833,172.5 485.5,172.5C 485.5,168.833 485.5,165.167 485.5,161.5C 485.5,161.167 485.5,160.833 485.5,160.5 Z"/></g>
<g><path style="opacity:1" fill="#893d1d" d="M 508.5,170.5 C 508.206,173.646 506.539,174.813 503.5,174C 502.177,173.184 501.511,172.017 501.5,170.5C 502.249,168.754 503.583,167.754 505.5,167.5C 507.516,167.516 508.516,168.516 508.5,170.5 Z"/></g>
<g><path style="opacity:1" fill="#8c4222" d="M 546.5,171.5 C 546.737,172.791 546.404,173.791 545.5,174.5C 545.5,173.5 545.5,172.5 545.5,171.5C 543.336,172.478 541.17,173.478 539,174.5C 536.244,174.576 535.077,173.243 535.5,170.5C 535.559,168.278 536.725,167.278 539,167.5C 541.424,168.962 543.924,170.296 546.5,171.5 Z"/></g>
<g><path style="opacity:1" fill="#dfddb0" d="M 226.5,169.5 C 227.047,185.074 227.047,200.407 226.5,215.5C 221.821,215.666 217.155,215.499 212.5,215C 212,214.5 211.5,214 211,213.5C 210.333,199.5 210.333,185.5 211,171.5C 211.5,171 212,170.5 212.5,170C 217.155,169.501 221.821,169.334 226.5,169.5 Z"/></g>
<g><path style="opacity:1" fill="#e1e1db" d="M 226.5,169.5 C 235.167,169.5 243.833,169.5 252.5,169.5C 252.5,184.833 252.5,200.167 252.5,215.5C 243.833,215.5 235.167,215.5 226.5,215.5C 227.047,200.407 227.047,185.074 226.5,169.5 Z"/></g>
<g><path style="opacity:0.995" fill="#d47b52" d="M 501.5,170.5 C 501.511,172.017 502.177,173.184 503.5,174C 506.539,174.813 508.206,173.646 508.5,170.5C 510.292,170.366 511.958,170.699 513.5,171.5C 513.5,171.833 513.5,172.167 513.5,172.5C 511.001,178.338 506.667,180.338 500.5,178.5C 499.043,176.372 498.043,174.038 497.5,171.5C 498.568,170.566 499.901,170.232 501.5,170.5 Z"/></g>
<g><path style="opacity:0.978" fill="#d77a50" d="M 535.5,170.5 C 535.077,173.243 536.244,174.576 539,174.5C 541.17,173.478 543.336,172.478 545.5,171.5C 545.5,172.5 545.5,173.5 545.5,174.5C 544.5,175.833 543.5,177.167 542.5,178.5C 536.688,180.119 532.688,178.119 530.5,172.5C 531.635,170.787 533.302,170.12 535.5,170.5 Z"/></g>
<g><path style="opacity:0.577" fill="#423e3e" d="M 546.5,171.5 C 547.791,171.263 548.791,171.596 549.5,172.5C 549.5,184.167 549.5,195.833 549.5,207.5C 548.609,208.11 547.609,208.443 546.5,208.5C 546.312,205.794 545.312,203.461 543.5,201.5C 543.825,193.648 543.492,185.982 542.5,178.5C 543.5,177.167 544.5,175.833 545.5,174.5C 546.404,173.791 546.737,172.791 546.5,171.5 Z"/></g>
<g><path style="opacity:0.235" fill="#b5cbd1" d="M 252.5,169.5 C 253.167,169.5 253.833,169.5 254.5,169.5C 254.5,184.833 254.5,200.167 254.5,215.5C 253.833,215.5 253.167,215.5 252.5,215.5C 252.5,200.167 252.5,184.833 252.5,169.5 Z"/></g>
<g><path style="opacity:1" fill="#454141" d="M 497.5,171.5 C 498.043,174.038 499.043,176.372 500.5,178.5C 500.5,186.167 500.5,193.833 500.5,201.5C 499.067,203.558 498.4,205.892 498.5,208.5C 497.209,208.737 496.209,208.404 495.5,207.5C 495.5,195.833 495.5,184.167 495.5,172.5C 495.842,171.662 496.508,171.328 497.5,171.5 Z"/></g>
<g><path style="opacity:0.971" fill="#d6794f" d="M 543.5,201.5 C 545.312,203.461 546.312,205.794 546.5,208.5C 543.649,207.677 540.982,206.344 538.5,204.5C 536.826,205.88 535.16,207.213 533.5,208.5C 532.416,208.315 531.416,207.982 530.5,207.5C 532.628,200.938 536.961,198.938 543.5,201.5 Z"/></g>
<g><path style="opacity:0.997" fill="#df784a" d="M 521.5,207.5 C 521.5,215.833 521.5,224.167 521.5,232.5C 521.167,232.5 520.833,232.5 520.5,232.5C 511.137,228.825 501.804,225.159 492.5,221.5C 492.5,216.833 492.5,212.167 492.5,207.5C 493.5,207.5 494.5,207.5 495.5,207.5C 496.209,208.404 497.209,208.737 498.5,208.5C 498.4,205.892 499.067,203.558 500.5,201.5C 506.711,198.977 511.044,200.81 513.5,207C 516.146,207.497 518.813,207.664 521.5,207.5 Z"/></g>
<g><path style="opacity:1" fill="#8c3d1b" d="M 503.5,204.5 C 507.605,204.496 509.105,206.496 508,210.5C 504.851,213.027 502.685,212.194 501.5,208C 501.978,206.697 502.645,205.531 503.5,204.5 Z"/></g>
<g><path style="opacity:0.998" fill="#ab4820" d="M 546.5,208.5 C 547.609,208.443 548.609,208.11 549.5,207.5C 550.805,209.397 551.471,211.731 551.5,214.5C 551.167,216.833 550.833,219.167 550.5,221.5C 548.261,222.788 545.928,223.788 543.5,224.5C 541.102,224.259 539.102,224.926 537.5,226.5C 535.819,228.008 533.819,229.008 531.5,229.5C 527.993,229.92 524.659,230.92 521.5,232.5C 521.5,224.167 521.5,215.833 521.5,207.5C 524.5,207.5 527.5,207.5 530.5,207.5C 531.416,207.982 532.416,208.315 533.5,208.5C 535.16,207.213 536.826,205.88 538.5,204.5C 540.982,206.344 543.649,207.677 546.5,208.5 Z"/></g>
<g><path style="opacity:0.314" fill="#76544b" d="M 543.5,224.5 C 541.898,226.074 539.898,226.741 537.5,226.5C 539.102,224.926 541.102,224.259 543.5,224.5 Z"/></g>
<g><path style="opacity:0.994" fill="#7c3c22" d="M 531.5,229.5 C 533.834,231.176 534.834,233.509 534.5,236.5C 533.167,237.833 533.167,239.167 534.5,240.5C 534.567,241.959 534.234,243.292 533.5,244.5C 529.983,245.569 527.649,244.236 526.5,240.5C 527.305,235.947 525.305,233.281 520.5,232.5C 520.833,232.5 521.167,232.5 521.5,232.5C 524.659,230.92 527.993,229.92 531.5,229.5 Z"/></g>
<g><path style="opacity:0.016" fill="#375061" d="M 534.5,236.5 C 535.833,237.833 535.833,239.167 534.5,240.5C 533.167,239.167 533.167,237.833 534.5,236.5 Z"/></g>
<g><path style="opacity:0.304" fill="#434144" d="M 516.5,238.5 C 514.5,238.5 512.5,238.5 510.5,238.5C 510.737,239.791 510.404,240.791 509.5,241.5C 510.404,240.791 510.737,239.791 510.5,238.5C 512.5,238.5 514.5,238.5 516.5,238.5 Z"/></g>
<g><path style="opacity:0.88" fill="#00516d" d="M 235.5,238.5 C 235.5,401.5 235.5,564.5 235.5,727.5C 232.713,728.477 229.713,728.81 226.5,728.5C 226.784,726.585 226.451,724.919 225.5,723.5C 225.5,712.167 225.5,700.833 225.5,689.5C 226.38,682.877 226.713,676.211 226.5,669.5C 216.478,669.832 206.478,669.499 196.5,668.5C 196.624,667.893 196.957,667.56 197.5,667.5C 206.652,668.494 215.985,668.827 225.5,668.5C 225.5,657.167 225.5,645.833 225.5,634.5C 226.798,627.803 226.798,621.136 225.5,614.5C 225.5,603.167 225.5,591.833 225.5,580.5C 226.798,573.803 226.798,567.136 225.5,560.5C 225.5,549.167 225.5,537.833 225.5,526.5C 226.732,519.691 226.732,513.024 225.5,506.5C 225.828,494.988 225.495,483.654 224.5,472.5C 226.044,468.891 226.71,465.057 226.5,461C 226.498,457.979 226.164,455.146 225.5,452.5C 225.5,440.833 225.5,429.167 225.5,417.5C 226.798,410.803 226.798,404.136 225.5,397.5C 225.828,385.322 225.495,373.322 224.5,361.5C 226.044,357.891 226.71,354.057 226.5,350C 226.498,346.979 226.164,344.146 225.5,341.5C 225.5,329.833 225.5,318.167 225.5,306.5C 226.418,300.225 226.751,293.892 226.5,287.5C 215.749,287.832 205.749,287.499 196.5,286.5C 206.167,286.5 215.833,286.5 225.5,286.5C 225.5,275.167 225.5,263.833 225.5,252.5C 226.383,247.897 226.717,243.23 226.5,238.5C 229.5,238.5 232.5,238.5 235.5,238.5 Z"/></g>
<g><path style="opacity:1" fill="#7f3a1c" d="M 516.5,238.5 C 516.5,238.833 516.5,239.167 516.5,239.5C 516.414,240.496 516.748,241.329 517.5,242C 515.833,243.167 514.167,244.333 512.5,245.5C 511.859,244.007 510.859,243.007 509.5,242.5C 509.5,242.167 509.5,241.833 509.5,241.5C 510.404,240.791 510.737,239.791 510.5,238.5C 512.5,238.5 514.5,238.5 516.5,238.5 Z"/></g>
<g><path style="opacity:0.959" fill="#3e4247" d="M 526.5,240.5 C 527.649,244.236 529.983,245.569 533.5,244.5C 534.203,246.716 535.536,248.549 537.5,250C 545.524,256.031 553.524,262.031 561.5,268C 594.003,268.168 626.336,268.668 658.5,269.5C 623.5,269.5 588.5,269.5 553.5,269.5C 553.158,268.662 552.492,268.328 551.5,268.5C 545.534,263.077 539.2,257.91 532.5,253C 530.783,251.441 528.783,250.608 526.5,250.5C 526.338,247.331 524.672,245.331 521.5,244.5C 518.929,245.728 517.595,247.728 517.5,250.5C 515.217,250.608 513.217,251.441 511.5,253C 505.355,258.1 499.021,262.933 492.5,267.5C 491.5,267.833 490.833,268.5 490.5,269.5C 487.5,269.5 484.5,269.5 481.5,269.5C 481.5,269.167 481.5,268.833 481.5,268.5C 491.124,261.382 500.624,254.049 510,246.5C 510.579,245.072 510.412,243.738 509.5,242.5C 510.859,243.007 511.859,244.007 512.5,245.5C 514.167,244.333 515.833,243.167 517.5,242C 516.748,241.329 516.414,240.496 516.5,239.5C 518.257,240.518 519.923,240.184 521.5,238.5C 523.3,238.902 524.967,239.569 526.5,240.5 Z M 517.5,250.5 C 517.833,250.5 518.167,250.5 518.5,250.5C 520.833,251.833 523.167,251.833 525.5,250.5C 525.833,250.5 526.167,250.5 526.5,250.5C 528.783,250.608 530.783,251.441 532.5,253C 539.2,257.91 545.534,263.077 551.5,268.5C 531.66,268.83 511.993,268.497 492.5,267.5C 499.021,262.933 505.355,258.1 511.5,253C 513.217,251.441 515.217,250.608 517.5,250.5 Z"/></g>
<g><path style="opacity:1" fill="#80391b" d="M 526.5,250.5 C 526.167,250.5 525.833,250.5 525.5,250.5C 523.167,249.167 520.833,249.167 518.5,250.5C 518.167,250.5 517.833,250.5 517.5,250.5C 517.595,247.728 518.929,245.728 521.5,244.5C 524.672,245.331 526.338,247.331 526.5,250.5 Z"/></g>
<g><path style="opacity:0.016" fill="#47403f" d="M 525.5,250.5 C 523.167,251.833 520.833,251.833 518.5,250.5C 520.833,249.167 523.167,249.167 525.5,250.5 Z"/></g>
<g><path style="opacity:0.171" fill="#0f536f" d="M 492.5,267.5 C 511.993,268.497 531.66,268.83 551.5,268.5C 552.492,268.328 553.158,268.662 553.5,269.5C 532.5,269.5 511.5,269.5 490.5,269.5C 490.833,268.5 491.5,267.833 492.5,267.5 Z"/></g>
<g><path style="opacity:0.996" fill="#141622" d="M 481.5,269.5 C 484.5,269.5 487.5,269.5 490.5,269.5C 511.5,269.5 532.5,269.5 553.5,269.5C 588.5,269.5 623.5,269.5 658.5,269.5C 666.32,268.599 672.487,271.265 677,277.5C 679.71,286.281 676.543,291.281 667.5,292.5C 662.968,292.182 658.634,292.515 654.5,293.5C 578.833,293.667 503.166,293.5 427.5,293C 430.885,286.849 429.885,281.516 424.5,277C 422.5,275.667 420.5,274.333 418.5,273C 413.284,271.64 408.284,270.64 403.5,270C 429.498,269.5 455.498,269.333 481.5,269.5 Z"/></g>
<g><path style="opacity:0.999" fill="#292c44" d="M 481.5,268.5 C 481.5,268.833 481.5,269.167 481.5,269.5C 455.498,269.333 429.498,269.5 403.5,270C 408.284,270.64 413.284,271.64 418.5,273C 420.5,274.333 422.5,275.667 424.5,277C 429.885,281.516 430.885,286.849 427.5,293C 503.166,293.5 578.833,293.667 654.5,293.5C 654.5,294.167 654.5,294.833 654.5,295.5C 654.5,306.5 654.5,317.5 654.5,328.5C 560.5,328.5 466.5,328.5 372.5,328.5C 372.333,313.163 372.5,297.83 373,282.5C 374.75,280.266 376.25,277.932 377.5,275.5C 383.496,271.446 390.163,269.28 397.5,269C 425.498,268.5 453.498,268.333 481.5,268.5 Z"/></g>
<g><path style="opacity:0.663" fill="#656a74" d="M 667.5,292.5 C 663.458,294.237 659.124,295.237 654.5,295.5C 654.5,294.833 654.5,294.167 654.5,293.5C 658.634,292.515 662.968,292.182 667.5,292.5 Z"/></g>
<g><path style="opacity:1" fill="#fefefe" d="M 418.5,307.5 C 457.833,307.5 497.167,307.5 536.5,307.5C 536.5,308.833 536.5,310.167 536.5,311.5C 497.167,311.5 457.833,311.5 418.5,311.5C 418.5,310.167 418.5,308.833 418.5,307.5 Z"/></g>
<g><path style="opacity:1" fill="#dfe0e3" d="M 571.5,306.5 C 579.5,306.5 587.5,306.5 595.5,306.5C 595.5,308.5 595.5,310.5 595.5,312.5C 587.5,312.5 579.5,312.5 571.5,312.5C 571.5,310.5 571.5,308.5 571.5,306.5 Z"/></g>
<g><path style="opacity:1" fill="#9c9da8" d="M 418.5,307.5 C 457.996,306.501 497.663,306.168 537.5,306.5C 537.5,308.5 537.5,310.5 537.5,312.5C 497.663,312.832 457.996,312.499 418.5,311.5C 457.833,311.5 497.167,311.5 536.5,311.5C 536.5,310.167 536.5,308.833 536.5,307.5C 497.167,307.5 457.833,307.5 418.5,307.5 Z"/></g>
<g><path style="opacity:1" fill="#999ba7" d="M 542.5,306.5 C 550.833,306.5 559.167,306.5 567.5,306.5C 567.5,308.5 567.5,310.5 567.5,312.5C 559.167,312.5 550.833,312.5 542.5,312.5C 542.5,310.5 542.5,308.5 542.5,306.5 Z"/></g>
<g><path style="opacity:1" fill="#fefefe" d="M 543.5,307.5 C 551.167,307.5 558.833,307.5 566.5,307.5C 566.5,308.833 566.5,310.167 566.5,311.5C 558.833,311.5 551.167,311.5 543.5,311.5C 543.5,310.167 543.5,308.833 543.5,307.5 Z"/></g>
<g><path style="opacity:1" fill="#fdfdfd" d="M 654.5,329.5 C 654.5,329.833 654.5,330.167 654.5,330.5C 654.5,330.833 654.5,331.167 654.5,331.5C 653.167,346.833 653.167,362.167 654.5,377.5C 707.5,377.5 760.5,377.5 813.5,377.5C 813.5,408.5 813.5,439.5 813.5,470.5C 807.655,470.151 801.988,470.984 796.5,473C 786.294,477.527 776.294,482.527 766.5,488C 756.023,491.701 745.357,492.367 734.5,490C 724.888,485.861 715.554,481.194 706.5,476C 696.391,470.881 685.724,469.214 674.5,471C 667.642,473.206 660.975,475.706 654.5,478.5C 654.5,454.167 654.5,429.833 654.5,405.5C 561.001,404.501 467.335,404.167 373.5,404.5C 373.5,379.5 373.5,354.5 373.5,329.5C 467.167,329.5 560.833,329.5 654.5,329.5 Z"/></g>
<g><path style="opacity:0.944" fill="#0292d1" d="M 226.5,215.5 C 235.167,215.5 243.833,215.5 252.5,215.5C 253.167,215.5 253.833,215.5 254.5,215.5C 254.666,221.842 254.5,228.175 254,234.5C 252.59,235.787 251.09,236.954 249.5,238C 244.845,238.499 240.179,238.666 235.5,238.5C 232.5,238.5 229.5,238.5 226.5,238.5C 226.717,243.23 226.383,247.897 225.5,252.5C 215.833,263.833 206.167,275.167 196.5,286.5C 205.749,287.499 215.749,287.832 226.5,287.5C 226.751,293.892 226.418,300.225 225.5,306.5C 215.874,317.671 206.207,329.005 196.5,340.5C 206.144,341.498 215.81,341.832 225.5,341.5C 226.164,344.146 226.498,346.979 226.5,350C 226.71,354.057 226.044,357.891 224.5,361.5C 214.948,373.444 205.281,385.278 195.5,397C 205.494,397.5 215.494,397.666 225.5,397.5C 226.798,404.136 226.798,410.803 225.5,417.5C 215.885,428.789 206.219,440.122 196.5,451.5C 206.144,452.498 215.81,452.832 225.5,452.5C 226.164,455.146 226.498,457.979 226.5,461C 226.71,465.057 226.044,468.891 224.5,472.5C 214.912,483.576 205.579,494.742 196.5,506C 206.161,506.5 215.828,506.666 225.5,506.5C 226.732,513.024 226.732,519.691 225.5,526.5C 215.482,537.375 205.815,548.541 196.5,560C 206.161,560.5 215.828,560.666 225.5,560.5C 226.798,567.136 226.798,573.803 225.5,580.5C 215.969,591.688 206.302,602.855 196.5,614C 206.161,614.5 215.828,614.666 225.5,614.5C 226.798,621.136 226.798,627.803 225.5,634.5C 215.919,645.354 206.586,656.354 197.5,667.5C 196.957,667.56 196.624,667.893 196.5,668.5C 206.478,669.499 216.478,669.832 226.5,669.5C 226.713,676.211 226.38,682.877 225.5,689.5C 215.504,700.283 205.838,711.45 196.5,723C 206.161,723.5 215.828,723.666 225.5,723.5C 226.451,724.919 226.784,726.585 226.5,728.5C 214.167,728.5 201.833,728.5 189.5,728.5C 189.334,724.154 189.501,719.821 190,715.5C 191.045,714.627 191.878,713.627 192.5,712.5C 201.134,701.421 210.134,690.587 219.5,680C 210.173,679.5 200.839,679.334 191.5,679.5C 190.883,679.389 190.383,679.056 190,678.5C 188.963,671.598 189.463,664.932 191.5,658.5C 201.053,647.757 210.386,636.757 219.5,625.5C 210.19,624.502 200.857,624.168 191.5,624.5C 190.883,624.389 190.383,624.056 190,623.5C 188.97,616.959 189.47,610.626 191.5,604.5C 200.919,593.442 210.252,582.275 219.5,571C 210.173,570.5 200.839,570.334 191.5,570.5C 190.883,570.389 190.383,570.056 190,569.5C 189.833,566.667 189.667,563.833 189.5,561C 188.957,556.612 189.957,552.779 192.5,549.5C 201.261,538.316 210.261,527.316 219.5,516.5C 210.579,515.655 200.912,515.155 190.5,515C 188.948,508.344 189.281,501.844 191.5,495.5C 201.031,484.312 210.698,473.145 220.5,462C 210.839,461.5 201.172,461.334 191.5,461.5C 190.186,459.085 189.519,456.252 189.5,453C 189.29,448.943 189.956,445.109 191.5,441.5C 200.917,430.499 210.251,419.332 219.5,408C 210.173,407.5 200.839,407.334 191.5,407.5C 190.182,404.742 189.515,401.576 189.5,398C 189.312,393.32 189.978,388.82 191.5,384.5C 201.011,373.393 210.678,362.226 220.5,351C 210.839,350.5 201.172,350.334 191.5,350.5C 190.188,348.257 189.522,345.59 189.5,342.5C 189.34,338.315 190.007,334.315 191.5,330.5C 201.051,319.231 210.717,308.064 220.5,297C 210.839,296.5 201.172,296.334 191.5,296.5C 190.186,294.085 189.519,291.252 189.5,288C 189,283.364 190,279.197 192.5,275.5C 202.636,262.826 212.969,250.492 223.5,238.5C 224.15,238.196 224.817,237.863 225.5,237.5C 226.497,230.197 226.831,222.863 226.5,215.5 Z"/></g>
<g><path style="opacity:1" fill="#cacbd0" d="M 377.5,275.5 C 376.25,277.932 374.75,280.266 373,282.5C 372.5,297.83 372.333,313.163 372.5,328.5C 466.5,328.5 560.5,328.5 654.5,328.5C 654.5,328.833 654.5,329.167 654.5,329.5C 560.833,329.5 467.167,329.5 373.5,329.5C 373.5,354.5 373.5,379.5 373.5,404.5C 467.335,404.167 561.001,404.501 654.5,405.5C 560.5,405.5 466.5,405.5 372.5,405.5C 372.5,433.5 372.5,461.5 372.5,489.5C 372.5,489.833 372.5,490.167 372.5,490.5C 372.167,490.5 371.833,490.5 371.5,490.5C 371.5,452.833 371.5,415.167 371.5,377.5C 372.493,369.35 372.826,361.017 372.5,352.5C 372.797,345.08 372.464,337.746 371.5,330.5C 371.333,314.163 371.5,297.83 372,281.5C 373.331,279.004 375.164,277.004 377.5,275.5 Z"/></g>
<g><path style="opacity:1" fill="#455e79" d="M 371.5,330.5 C 372.464,337.746 372.797,345.08 372.5,352.5C 372.167,352.5 371.833,352.5 371.5,352.5C 347.167,352.5 322.833,352.5 298.5,352.5C 298.5,360.167 298.5,367.833 298.5,375.5C 298.5,413.5 298.5,451.5 298.5,489.5C 298.5,496.167 298.5,502.833 298.5,509.5C 298.5,515.833 298.5,522.167 298.5,528.5C 298.5,535.167 298.5,541.833 298.5,548.5C 298.5,580.5 298.5,612.5 298.5,644.5C 470.167,644.667 641.834,644.5 813.5,644C 814.496,611.907 814.829,579.74 814.5,547.5C 814.5,541.167 814.5,534.833 814.5,528.5C 814.5,522.167 814.5,515.833 814.5,509.5C 814.5,502.833 814.5,496.167 814.5,489.5C 814.5,483.167 814.5,476.833 814.5,470.5C 814.832,438.996 814.498,407.662 813.5,376.5C 813.5,373.167 813.5,369.833 813.5,366.5C 813.5,361.833 813.5,357.167 813.5,352.5C 760.5,352.5 707.5,352.5 654.5,352.5C 654.5,345.5 654.5,338.5 654.5,331.5C 654.5,331.167 654.5,330.833 654.5,330.5C 710.834,330.333 767.168,330.5 823.5,331C 828.364,332.416 832.03,335.249 834.5,339.5C 834.5,448.167 834.5,556.833 834.5,665.5C 648.833,665.5 463.167,665.5 277.5,665.5C 277.333,557.166 277.5,448.833 278,340.5C 279.642,335.407 283.142,332.24 288.5,331C 316.165,330.5 343.831,330.333 371.5,330.5 Z"/></g>
<g><path style="opacity:1" fill="#0b93d1" d="M 814.5,547.5 C 814.829,579.74 814.496,611.907 813.5,644C 641.834,644.5 470.167,644.667 298.5,644.5C 298.5,612.5 298.5,580.5 298.5,548.5C 302.182,548.335 305.848,548.501 309.5,549C 322.44,554.47 335.106,560.47 347.5,567C 356.359,569.961 365.359,570.295 374.5,568C 384.391,564.388 393.724,559.721 402.5,554C 413.95,548.778 425.95,547.111 438.5,549C 450.972,555.381 463.639,561.381 476.5,567C 487.27,570.434 497.937,570.101 508.5,566C 519.186,560.632 529.853,555.299 540.5,550C 549.772,548.447 559.105,548.114 568.5,549C 579.588,555.071 590.922,560.738 602.5,566C 614.107,570.47 625.774,570.47 637.5,566C 648.944,559.279 660.944,553.613 673.5,549C 681.897,548.13 690.23,548.463 698.5,550C 708.5,555 718.5,560 728.5,565C 741.529,569.559 754.529,569.559 767.5,565C 778.417,559.374 789.417,554.041 800.5,549C 805.198,548.649 809.864,548.149 814.5,547.5 Z"/></g>
<g><path style="opacity:1" fill="#62b3d0" d="M 298.5,528.5 C 304.049,528.087 309.382,528.92 314.5,531C 325.513,537.173 336.846,542.84 348.5,548C 359.692,550.394 370.692,549.728 381.5,546C 390.776,540.242 400.443,535.242 410.5,531C 419.342,528.574 428.342,527.907 437.5,529C 450.613,535.774 463.946,542.108 477.5,548C 487.61,550.261 497.61,549.927 507.5,547C 515.985,543.504 523.985,539.171 531.5,534C 543.357,528.433 555.691,527.1 568.5,530C 580.044,535.939 591.711,541.606 603.5,547C 614.495,550.286 625.495,550.286 636.5,547C 646.929,541.119 657.596,535.785 668.5,531C 677.035,528.694 685.701,528.027 694.5,529C 707.147,534.965 719.814,540.965 732.5,547C 742.08,549.838 751.746,550.171 761.5,548C 774.167,542 786.833,536 799.5,530C 804.448,528.95 809.448,528.45 814.5,528.5C 814.5,534.833 814.5,541.167 814.5,547.5C 809.864,548.149 805.198,548.649 800.5,549C 789.417,554.041 778.417,559.374 767.5,565C 754.529,569.559 741.529,569.559 728.5,565C 718.5,560 708.5,555 698.5,550C 690.23,548.463 681.897,548.13 673.5,549C 660.944,553.613 648.944,559.279 637.5,566C 625.774,570.47 614.107,570.47 602.5,566C 590.922,560.738 579.588,555.071 568.5,549C 559.105,548.114 549.772,548.447 540.5,550C 529.853,555.299 519.186,560.632 508.5,566C 497.937,570.101 487.27,570.434 476.5,567C 463.639,561.381 450.972,555.381 438.5,549C 425.95,547.111 413.95,548.778 402.5,554C 393.724,559.721 384.391,564.388 374.5,568C 365.359,570.295 356.359,569.961 347.5,567C 335.106,560.47 322.44,554.47 309.5,549C 305.848,548.501 302.182,548.335 298.5,548.5C 298.5,541.833 298.5,535.167 298.5,528.5 Z"/></g>
<g><path style="opacity:1" fill="#0a94d1" d="M 298.5,509.5 C 302.182,509.335 305.848,509.501 309.5,510C 321.32,515.41 332.987,521.077 344.5,527C 356.485,531.618 368.485,531.618 380.5,527C 388.923,523.037 396.923,518.537 404.5,513.5C 419.167,513.5 433.833,513.5 448.5,513.5C 458.802,520.816 470.136,526.316 482.5,530C 490.68,531.049 498.68,530.382 506.5,528C 515.838,523.666 524.838,518.833 533.5,513.5C 547.5,513.5 561.5,513.5 575.5,513.5C 584.765,518.799 594.431,523.632 604.5,528C 614.826,531.332 625.159,531.332 635.5,528C 647.404,521.215 659.737,515.215 672.5,510C 679.833,509.333 687.167,509.333 694.5,510C 707.147,515.965 719.814,521.965 732.5,528C 744.776,531.824 756.776,531.158 768.5,526C 776.167,521.667 783.833,517.333 791.5,513C 795.006,512.371 798.34,511.371 801.5,510C 805.821,509.501 810.154,509.334 814.5,509.5C 814.5,515.833 814.5,522.167 814.5,528.5C 809.448,528.45 804.448,528.95 799.5,530C 786.833,536 774.167,542 761.5,548C 751.746,550.171 742.08,549.838 732.5,547C 719.814,540.965 707.147,534.965 694.5,529C 685.701,528.027 677.035,528.694 668.5,531C 657.596,535.785 646.929,541.119 636.5,547C 625.495,550.286 614.495,550.286 603.5,547C 591.711,541.606 580.044,535.939 568.5,530C 555.691,527.1 543.357,528.433 531.5,534C 523.985,539.171 515.985,543.504 507.5,547C 497.61,549.927 487.61,550.261 477.5,548C 463.946,542.108 450.613,535.774 437.5,529C 428.342,527.907 419.342,528.574 410.5,531C 400.443,535.242 390.776,540.242 381.5,546C 370.692,549.728 359.692,550.394 348.5,548C 336.846,542.84 325.513,537.173 314.5,531C 309.382,528.92 304.049,528.087 298.5,528.5C 298.5,522.167 298.5,515.833 298.5,509.5 Z"/></g>
<g><path style="opacity:1" fill="#91bfcc" d="M 448.5,513.5 C 476.833,513.5 505.167,513.5 533.5,513.5C 524.838,518.833 515.838,523.666 506.5,528C 498.68,530.382 490.68,531.049 482.5,530C 470.136,526.316 458.802,520.816 448.5,513.5 Z"/></g>
<g><path style="opacity:1" fill="#93c0cd" d="M 814.5,489.5 C 814.5,496.167 814.5,502.833 814.5,509.5C 810.154,509.334 805.821,509.501 801.5,510C 798.34,511.371 795.006,512.371 791.5,513C 783.833,517.333 776.167,521.667 768.5,526C 756.776,531.158 744.776,531.824 732.5,528C 719.814,521.965 707.147,515.965 694.5,510C 687.167,509.333 679.833,509.333 672.5,510C 659.737,515.215 647.404,521.215 635.5,528C 625.159,531.332 614.826,531.332 604.5,528C 594.431,523.632 584.765,518.799 575.5,513.5C 601.672,513.831 627.672,513.498 653.5,512.5C 654.486,508.03 654.819,503.363 654.5,498.5C 666.837,491.514 679.671,488.514 693,489.5C 705.814,495.632 718.647,501.798 731.5,508C 737.054,509.593 742.72,510.76 748.5,511.5C 754.199,510.492 759.866,509.325 765.5,508C 775.898,502.134 786.565,496.801 797.5,492C 803.01,490.11 808.676,489.277 814.5,489.5 Z"/></g>
<g><path style="opacity:1" fill="#93c0cc" d="M 298.5,489.5 C 302.582,489.344 306.582,489.844 310.5,491C 322.236,496.518 333.903,502.185 345.5,508C 351.024,509.258 356.524,510.424 362,511.5C 364.757,511.081 367.757,510.414 371,509.5C 371.499,503.509 371.666,497.509 371.5,491.5C 371.5,491.167 371.5,490.833 371.5,490.5C 371.833,490.5 372.167,490.5 372.5,490.5C 372.5,498.167 372.5,505.833 372.5,513.5C 383.167,513.5 393.833,513.5 404.5,513.5C 396.923,518.537 388.923,523.037 380.5,527C 368.485,531.618 356.485,531.618 344.5,527C 332.987,521.077 321.32,515.41 309.5,510C 305.848,509.501 302.182,509.335 298.5,509.5C 298.5,502.833 298.5,496.167 298.5,489.5 Z"/></g>
<g><path style="opacity:1" fill="#afc7cf" d="M 371.5,352.5 C 371.833,352.5 372.167,352.5 372.5,352.5C 372.826,361.017 372.493,369.35 371.5,377.5C 347.672,376.502 323.672,376.169 299.5,376.5C 299.5,407.833 299.5,439.167 299.5,470.5C 304.333,470.375 309,471.208 313.5,473C 324.586,478.141 335.586,483.474 346.5,489C 354.684,491.178 363.017,492.011 371.5,491.5C 371.666,497.509 371.499,503.509 371,509.5C 367.757,510.414 364.757,511.081 362,511.5C 356.524,510.424 351.024,509.258 345.5,508C 333.903,502.185 322.236,496.518 310.5,491C 306.582,489.844 302.582,489.344 298.5,489.5C 298.5,451.5 298.5,413.5 298.5,375.5C 322.833,375.5 347.167,375.5 371.5,375.5C 371.5,372.5 371.5,369.5 371.5,366.5C 371.5,362.167 371.5,357.833 371.5,353.5C 371.5,353.167 371.5,352.833 371.5,352.5 Z"/></g>
<g><path style="opacity:1" fill="#afc8d0" d="M 813.5,470.5 C 813.833,470.5 814.167,470.5 814.5,470.5C 814.5,476.833 814.5,483.167 814.5,489.5C 808.676,489.277 803.01,490.11 797.5,492C 786.565,496.801 775.898,502.134 765.5,508C 759.866,509.325 754.199,510.492 748.5,511.5C 742.72,510.76 737.054,509.593 731.5,508C 718.647,501.798 705.814,495.632 693,489.5C 679.671,488.514 666.837,491.514 654.5,498.5C 654.5,491.833 654.5,485.167 654.5,478.5C 660.975,475.706 667.642,473.206 674.5,471C 685.724,469.214 696.391,470.881 706.5,476C 715.554,481.194 724.888,485.861 734.5,490C 745.357,492.367 756.023,491.701 766.5,488C 776.294,482.527 786.294,477.527 796.5,473C 801.988,470.984 807.655,470.151 813.5,470.5 Z"/></g>
<g><path style="opacity:1" fill="#2a2d44" d="M 653.5,512.5 C 627.672,513.498 601.672,513.831 575.5,513.5C 561.5,513.5 547.5,513.5 533.5,513.5C 505.167,513.5 476.833,513.5 448.5,513.5C 433.833,513.5 419.167,513.5 404.5,513.5C 393.833,513.5 383.167,513.5 372.5,513.5C 372.5,505.833 372.5,498.167 372.5,490.5C 372.5,490.167 372.5,489.833 372.5,489.5C 373.498,462.005 373.831,434.338 373.5,406.5C 466.833,406.5 560.167,406.5 653.5,406.5C 653.5,441.833 653.5,477.167 653.5,512.5 Z"/></g>
<g><path style="opacity:1" fill="#858795" d="M 522.5,495.5 C 501.844,494.167 480.844,493.5 459.5,493.5C 438.156,493.5 417.156,494.167 396.5,495.5C 395.596,494.791 395.263,493.791 395.5,492.5C 438.167,492.5 480.833,492.5 523.5,492.5C 523.737,493.791 523.404,494.791 522.5,495.5 Z"/></g>
<g><path style="opacity:1" fill="#d7d7d7" d="M 522.5,495.5 C 480.5,495.5 438.5,495.5 396.5,495.5C 417.156,494.167 438.156,493.5 459.5,493.5C 480.844,493.5 501.844,494.167 522.5,495.5 Z"/></g>
<g><path style="opacity:1" fill="#9ea0aa" d="M 396.5,487.5 C 470.493,489.497 544.826,490.164 619.5,489.5C 545.002,490.499 470.335,490.833 395.5,490.5C 395.263,489.209 395.596,488.209 396.5,487.5 Z"/></g>
<g><path style="opacity:1" fill="#494d61" d="M 654.5,405.5 C 654.5,429.833 654.5,454.167 654.5,478.5C 654.5,485.167 654.5,491.833 654.5,498.5C 654.819,503.363 654.486,508.03 653.5,512.5C 653.5,477.167 653.5,441.833 653.5,406.5C 560.167,406.5 466.833,406.5 373.5,406.5C 373.831,434.338 373.498,462.005 372.5,489.5C 372.5,461.5 372.5,433.5 372.5,405.5C 466.5,405.5 560.5,405.5 654.5,405.5 Z"/></g>
<g><path style="opacity:1" fill="#cccccd" d="M 396.5,487.5 C 471.174,486.836 545.507,487.503 619.5,489.5C 544.826,490.164 470.493,489.497 396.5,487.5 Z"/></g>
<g><path style="opacity:1" fill="#818390" d="M 396.5,482.5 C 405.642,483.832 415.142,484.498 425,484.5C 434.858,484.498 444.358,483.832 453.5,482.5C 454.167,482.5 454.833,482.5 455.5,482.5C 461.412,484.456 467.745,485.123 474.5,484.5C 448.339,485.498 422.005,485.831 395.5,485.5C 395.263,484.209 395.596,483.209 396.5,482.5 Z"/></g>
<g><path style="opacity:1" fill="#f0f1f2" d="M 455.5,482.5 C 462.255,481.877 468.588,482.544 474.5,484.5C 467.745,485.123 461.412,484.456 455.5,482.5 Z"/></g>
<g><path style="opacity:1" fill="#e4e6e8" d="M 396.5,482.5 C 415.5,482.5 434.5,482.5 453.5,482.5C 444.358,483.832 434.858,484.498 425,484.5C 415.142,484.498 405.642,483.832 396.5,482.5 Z"/></g>
<g><path style="opacity:1" fill="#6f7382" d="M 396.5,477.5 C 470.493,479.497 544.826,480.164 619.5,479.5C 545.002,480.499 470.335,480.833 395.5,480.5C 395.263,479.209 395.596,478.209 396.5,477.5 Z"/></g>
<g><path style="opacity:1" fill="#f1f1f3" d="M 396.5,477.5 C 471.174,476.836 545.507,477.503 619.5,479.5C 544.826,480.164 470.493,479.497 396.5,477.5 Z"/></g>
<g><path style="opacity:1" fill="#1f425e" d="M 395.5,419.5 C 395.5,430.833 395.5,442.167 395.5,453.5C 416.66,454.497 437.993,454.831 459.5,454.5C 438.006,455.497 416.34,455.831 394.5,455.5C 394.172,443.322 394.505,431.322 395.5,419.5 Z"/></g>
<g><path style="opacity:1" fill="#0a77a8" d="M 456.5,419.5 C 457.5,419.5 458.5,419.5 459.5,419.5C 459.5,431.167 459.5,442.833 459.5,454.5C 437.993,454.831 416.66,454.497 395.5,453.5C 416.5,453.5 437.5,453.5 458.5,453.5C 459.111,441.913 458.444,430.58 456.5,419.5 Z"/></g>
<g><path style="opacity:1" fill="#98cc5f" d="M 554.5,419.5 C 575.833,419.5 597.167,419.5 618.5,419.5C 618.5,431.167 618.5,442.833 618.5,454.5C 597.167,454.5 575.833,454.5 554.5,454.5C 554.5,442.833 554.5,431.167 554.5,419.5 Z"/></g>
<g><path style="opacity:1" fill="#d95f14" d="M 538.5,420.5 C 538.5,431.5 538.5,442.5 538.5,453.5C 517.5,453.5 496.5,453.5 475.5,453.5C 475.5,442.5 475.5,431.5 475.5,420.5C 496.5,420.5 517.5,420.5 538.5,420.5 Z"/></g>
<g><path style="opacity:1" fill="#0093d3" d="M 395.5,419.5 C 415.833,419.5 436.167,419.5 456.5,419.5C 458.444,430.58 459.111,441.913 458.5,453.5C 437.5,453.5 416.5,453.5 395.5,453.5C 395.5,442.167 395.5,430.833 395.5,419.5 Z"/></g>
<g><path style="opacity:1" fill="#a74e1b" d="M 538.5,420.5 C 517.5,420.5 496.5,420.5 475.5,420.5C 475.5,431.5 475.5,442.5 475.5,453.5C 496.5,453.5 517.5,453.5 538.5,453.5C 517.34,454.497 496.007,454.831 474.5,454.5C 474.5,442.833 474.5,431.167 474.5,419.5C 496.007,419.169 517.34,419.503 538.5,420.5 Z"/></g>
<g><path style="opacity:1" fill="#000000" d="M 418.5,391.5 C 451.85,390.84 484.85,391.507 517.5,393.5C 484.15,394.16 451.15,393.493 418.5,391.5 Z"/></g>
<g><path style="opacity:1" fill="#7e7e7e" d="M 418.5,391.5 C 451.662,390.502 484.996,390.168 518.5,390.5C 518.737,391.791 518.404,392.791 517.5,393.5C 484.85,391.507 451.85,390.84 418.5,391.5 Z"/></g>
<g><path style="opacity:1" fill="#080808" d="M 418.5,386.5 C 464.172,386.167 509.838,386.5 555.5,387.5C 532.667,387.833 509.833,388.167 487,388.5C 463.823,388.5 440.99,387.833 418.5,386.5 Z"/></g>
<g><path style="opacity:1" fill="#b8b9b9" d="M 513.5,381.5 C 516.625,380.521 519.958,380.187 523.5,380.5C 523.5,381.833 523.5,383.167 523.5,384.5C 519.958,384.813 516.625,384.479 513.5,383.5C 525.5,382.833 525.5,382.167 513.5,381.5 Z"/></g>
<g><path style="opacity:1" fill="#0c0b0b" d="M 513.5,381.5 C 525.5,382.167 525.5,382.833 513.5,383.5C 513.5,382.833 513.5,382.167 513.5,381.5 Z"/></g>
<g><path style="opacity:1" fill="#090808" d="M 418.5,381.5 C 539.833,382.167 539.833,382.833 418.5,383.5C 418.5,382.833 418.5,382.167 418.5,381.5 Z"/></g>
<g><path style="opacity:1" fill="#aeadad" d="M 418.5,381.5 C 448.995,380.502 479.662,380.169 510.5,380.5C 510.5,381.833 510.5,383.167 510.5,384.5C 479.662,384.831 448.995,384.498 418.5,383.5C 539.833,382.833 539.833,382.167 418.5,381.5 Z"/></g>
<g><path style="opacity:1" fill="#fefefe" d="M 371.5,377.5 C 371.5,415.167 371.5,452.833 371.5,490.5C 371.5,490.833 371.5,491.167 371.5,491.5C 363.017,492.011 354.684,491.178 346.5,489C 335.586,483.474 324.586,478.141 313.5,473C 309,471.208 304.333,470.375 299.5,470.5C 299.5,439.167 299.5,407.833 299.5,376.5C 323.672,376.169 347.672,376.502 371.5,377.5 Z"/></g>
<g><path style="opacity:1" fill="#dadbdb" d="M 654.5,377.5 C 654.5,377.167 654.5,376.833 654.5,376.5C 707.5,376.5 760.5,376.5 813.5,376.5C 814.498,407.662 814.832,438.996 814.5,470.5C 814.167,470.5 813.833,470.5 813.5,470.5C 813.5,439.5 813.5,408.5 813.5,377.5C 760.5,377.5 707.5,377.5 654.5,377.5 Z"/></g>
<g><path style="opacity:1" fill="#222222" d="M 493.5,376.5 C 505.833,376.5 518.167,376.5 530.5,376.5C 524.705,377.83 518.538,378.496 512,378.5C 505.462,378.496 499.295,377.83 493.5,376.5 Z"/></g>
<g><path style="opacity:1" fill="#212121" d="M 492.5,376.5 C 468.189,378.49 443.523,379.157 418.5,378.5C 442.811,376.51 467.477,375.843 492.5,376.5 Z"/></g>
<g><path style="opacity:1" fill="#b5b5b5" d="M 504.5,374.5 C 523.833,374.5 543.167,374.5 562.5,374.5C 551.833,375.167 541.167,375.833 530.5,376.5C 518.167,376.5 505.833,376.5 493.5,376.5C 493.167,375.167 492.833,375.167 492.5,376.5C 467.477,375.843 442.811,376.51 418.5,378.5C 417.167,376.5 417.167,374.5 418.5,372.5C 438.473,374.488 458.806,375.155 479.5,374.5C 479.56,375.043 479.893,375.376 480.5,375.5C 481.176,374.398 481.842,373.398 482.5,372.5C 488.979,371.509 495.646,371.176 502.5,371.5C 502.238,372.978 502.571,374.311 503.5,375.5C 504.107,375.376 504.44,375.043 504.5,374.5 Z"/></g>
<g><path style="opacity:1" fill="#141414" d="M 562.5,374.5 C 543.167,374.5 523.833,374.5 504.5,374.5C 513.809,373.168 523.476,372.501 533.5,372.5C 543.524,372.501 553.191,373.168 562.5,374.5 Z"/></g>
<g><path style="opacity:1" fill="#131313" d="M 482.5,372.5 C 488.868,372.17 495.202,372.504 501.5,373.5C 498.333,373.833 495.167,374.167 492,374.5C 488.424,374.485 485.258,373.818 482.5,372.5 Z"/></g>
<g><path style="opacity:1" fill="#131313" d="M 418.5,372.5 C 439.194,371.845 459.527,372.512 479.5,374.5C 458.806,375.155 438.473,374.488 418.5,372.5 Z"/></g>
<g><path style="opacity:1" fill="#c5e2e4" d="M 813.5,366.5 C 813.5,369.833 813.5,373.167 813.5,376.5C 760.5,376.5 707.5,376.5 654.5,376.5C 654.5,373.167 654.5,369.833 654.5,366.5C 707.5,366.5 760.5,366.5 813.5,366.5 Z"/></g>
<g><path style="opacity:1" fill="#c6e3e6" d="M 371.5,352.5 C 371.5,352.833 371.5,353.167 371.5,353.5C 347.5,353.5 323.5,353.5 299.5,353.5C 299.5,357.833 299.5,362.167 299.5,366.5C 323.5,366.5 347.5,366.5 371.5,366.5C 371.5,369.5 371.5,372.5 371.5,375.5C 347.167,375.5 322.833,375.5 298.5,375.5C 298.5,367.833 298.5,360.167 298.5,352.5C 322.833,352.5 347.167,352.5 371.5,352.5 Z"/></g>
<g><path style="opacity:1" fill="#6f6f6f" d="M 517.5,363.5 C 518.404,364.209 518.737,365.209 518.5,366.5C 484.996,366.832 451.662,366.498 418.5,365.5C 451.85,366.16 484.85,365.493 517.5,363.5 Z"/></g>
<g><path style="opacity:1" fill="#060606" d="M 517.5,363.5 C 484.85,365.493 451.85,366.16 418.5,365.5C 451.15,363.507 484.15,362.84 517.5,363.5 Z"/></g>
<g><path style="opacity:1" fill="#403f3f" d="M 418.5,358.5 C 464.167,358.5 509.833,358.5 555.5,358.5C 555.5,359.5 555.5,360.5 555.5,361.5C 509.833,361.5 464.167,361.5 418.5,361.5C 418.5,360.5 418.5,359.5 418.5,358.5 Z"/></g>
<g><path style="opacity:1" fill="#454545" d="M 513.5,353.5 C 516.833,353.5 520.167,353.5 523.5,353.5C 523.5,354.5 523.5,355.5 523.5,356.5C 520.167,356.5 516.833,356.5 513.5,356.5C 513.5,355.5 513.5,354.5 513.5,353.5 Z"/></g>
<g><path style="opacity:1" fill="#282828" d="M 418.5,353.5 C 448.833,353.5 479.167,353.5 509.5,353.5C 509.5,354.5 509.5,355.5 509.5,356.5C 479.167,356.5 448.833,356.5 418.5,356.5C 418.5,355.5 418.5,354.5 418.5,353.5 Z"/></g>
<g><path style="opacity:1" fill="#e0f0f2" d="M 654.5,331.5 C 654.5,338.5 654.5,345.5 654.5,352.5C 707.5,352.5 760.5,352.5 813.5,352.5C 813.5,357.167 813.5,361.833 813.5,366.5C 760.5,366.5 707.5,366.5 654.5,366.5C 654.5,369.833 654.5,373.167 654.5,376.5C 654.5,376.833 654.5,377.167 654.5,377.5C 653.167,362.167 653.167,346.833 654.5,331.5 Z"/></g>
<g><path style="opacity:1" fill="#dfeff2" d="M 371.5,353.5 C 371.5,357.833 371.5,362.167 371.5,366.5C 347.5,366.5 323.5,366.5 299.5,366.5C 299.5,362.167 299.5,357.833 299.5,353.5C 323.5,353.5 347.5,353.5 371.5,353.5 Z"/></g>
<g><path style="opacity:1" fill="#506881" d="M 330.5,355.5 C 336.158,354.679 337.825,356.846 335.5,362C 329.741,363.139 328.074,360.972 330.5,355.5 Z"/></g>
<g><path style="opacity:1" fill="#4d667f" d="M 318.5,355.5 C 323.328,355.385 324.661,357.552 322.5,362C 317.57,362.427 316.237,360.26 318.5,355.5 Z"/></g>
<g><path style="opacity:1" fill="#516981" d="M 305.5,355.5 C 310.22,355.206 311.886,357.206 310.5,361.5C 304.74,363.212 303.074,361.212 305.5,355.5 Z"/></g>
<g><path style="opacity:1" fill="#333333" d="M 418.5,349.5 C 443.19,348.843 467.523,349.51 491.5,351.5C 466.81,352.157 442.477,351.49 418.5,349.5 Z"/></g>
<g><path style="opacity:1" fill="#303030" d="M 504.5,345.5 C 523.863,344.846 542.863,345.513 561.5,347.5C 542.137,348.154 523.137,347.487 504.5,345.5 Z"/></g>
<g><path style="opacity:1" fill="#2f2f2f" d="M 418.5,345.5 C 438.861,344.845 458.861,345.512 478.5,347.5C 458.5,347.5 438.5,347.5 418.5,347.5C 418.5,346.833 418.5,346.167 418.5,345.5 Z"/></g>
<g><path style="opacity:1" fill="#646464" d="M 504.5,345.5 C 523.659,344.503 542.993,344.17 562.5,344.5C 562.5,345.5 562.5,346.5 562.5,347.5C 562.167,347.5 561.833,347.5 561.5,347.5C 542.863,345.513 523.863,344.846 504.5,345.5 Z"/></g>
<g><path style="opacity:1" fill="#636363" d="M 418.5,345.5 C 418.5,345.167 418.5,344.833 418.5,344.5C 438.833,344.5 459.167,344.5 479.5,344.5C 479.737,345.791 479.404,346.791 478.5,347.5C 458.861,345.512 438.861,344.845 418.5,345.5 Z"/></g>
<g><path style="opacity:1" fill="#d6d6d6" d="M 418.5,344.5 C 418.5,344.167 418.5,343.833 418.5,343.5C 466.5,343.5 514.5,343.5 562.5,343.5C 562.5,343.833 562.5,344.167 562.5,344.5C 542.993,344.17 523.659,344.503 504.5,345.5C 523.137,347.487 542.137,348.154 561.5,347.5C 561.833,347.5 562.167,347.5 562.5,347.5C 552.347,348.494 542.014,348.828 531.5,348.5C 531.737,349.791 531.404,350.791 530.5,351.5C 530.5,350.5 530.5,349.5 530.5,348.5C 518.167,348.5 505.833,348.5 493.5,348.5C 493.5,349.5 493.5,350.5 493.5,351.5C 492.833,351.5 492.167,351.5 491.5,351.5C 467.523,349.51 443.19,348.843 418.5,349.5C 418.5,348.833 418.5,348.167 418.5,347.5C 438.5,347.5 458.5,347.5 478.5,347.5C 479.404,346.791 479.737,345.791 479.5,344.5C 459.167,344.5 438.833,344.5 418.5,344.5 Z"/></g>
<g><path style="opacity:1" fill="#484848" d="M 530.5,351.5 C 518.167,351.5 505.833,351.5 493.5,351.5C 493.5,350.5 493.5,349.5 493.5,348.5C 505.833,348.5 518.167,348.5 530.5,348.5C 530.5,349.5 530.5,350.5 530.5,351.5 Z"/></g>
<g><path style="opacity:1" fill="#414141" d="M 481.5,344.5 C 488.5,344.5 495.5,344.5 502.5,344.5C 502.5,345.5 502.5,346.5 502.5,347.5C 495.5,347.5 488.5,347.5 481.5,347.5C 481.5,346.5 481.5,345.5 481.5,344.5 Z"/></g>
<g><path style="opacity:1" fill="#565656" d="M 562.5,343.5 C 514.5,343.5 466.5,343.5 418.5,343.5C 418.5,342.5 418.5,341.5 418.5,340.5C 488.167,340.5 557.833,340.5 627.5,340.5C 627.5,341.5 627.5,342.5 627.5,343.5C 605.833,343.5 584.167,343.5 562.5,343.5 Z"/></g>
<g><path style="opacity:1" fill="#fefefe" d="M 277.5,665.5 C 463.167,665.5 648.833,665.5 834.5,665.5C 834.5,680.833 834.5,696.167 834.5,711.5C 832.061,713.534 829.728,715.701 827.5,718C 754.834,718.5 682.167,718.667 609.5,718.5C 573.833,718.5 538.167,718.5 502.5,718.5C 429.833,718.667 357.166,718.5 284.5,718C 281.567,715.736 279.4,712.902 278,709.5C 277.5,694.837 277.333,680.17 277.5,665.5 Z"/></g>
<g><path style="opacity:1" fill="#475f7a" d="M 566.5,680.5 C 566.5,687.167 566.5,693.833 566.5,700.5C 559.833,700.5 553.167,700.5 546.5,700.5C 546.5,693.833 546.5,687.167 546.5,680.5C 553.167,680.5 559.833,680.5 566.5,680.5 Z"/></g>
<g><path style="opacity:1" fill="#a6b2bd" d="M 566.5,680.5 C 559.833,680.5 553.167,680.5 546.5,680.5C 546.5,687.167 546.5,693.833 546.5,700.5C 545.509,693.687 545.175,686.687 545.5,679.5C 552.687,679.175 559.687,679.509 566.5,680.5 Z"/></g>
<g><path style="opacity:1" fill="#445e79" d="M 502.5,718.5 C 538.167,718.5 573.833,718.5 609.5,718.5C 615.233,734.698 620.566,751.031 625.5,767.5C 579.167,768.833 532.833,768.833 486.5,767.5C 492.238,751.286 497.571,734.953 502.5,718.5 Z"/></g>
<g><path style="opacity:0.494" fill="#b2b4b1" d="M 180.5,727.5 C 175.025,728.489 169.358,728.822 163.5,728.5C 163.5,746.5 163.5,764.5 163.5,782.5C 162.833,782.5 162.167,782.5 161.5,782.5C 161.333,764.497 161.5,746.497 162,728.5C 168.076,727.524 174.242,727.19 180.5,727.5 Z"/></g>
<g><path style="opacity:1" fill="#9b9c9c" d="M 180.5,727.5 C 183.391,728.403 186.391,728.736 189.5,728.5C 201.833,728.5 214.167,728.5 226.5,728.5C 229.713,728.81 232.713,728.477 235.5,727.5C 241.833,727.5 248.167,727.5 254.5,727.5C 254.5,745.833 254.5,764.167 254.5,782.5C 224.167,782.5 193.833,782.5 163.5,782.5C 163.5,764.5 163.5,746.5 163.5,728.5C 169.358,728.822 175.025,728.489 180.5,727.5 Z"/></g>
<g><path style="opacity:0.999" fill="#c6e3e4" d="M 486.5,767.5 C 532.833,768.833 579.167,768.833 625.5,767.5C 632.943,768.656 640.277,770.322 647.5,772.5C 648.487,775.768 648.82,779.102 648.5,782.5C 586.833,782.5 525.167,782.5 463.5,782.5C 463.18,779.102 463.513,775.768 464.5,772.5C 471.767,770.516 479.1,768.85 486.5,767.5 Z"/></g>
</svg>
