<svg xmlns:dc="http://purl.org/dc/elements/1.1/" xmlns:cc="http://creativecommons.org/ns#" xmlns:rdf="http://www.w3.org/1999/02/22-rdf-syntax-ns#" xmlns:svg="http://www.w3.org/2000/svg" xmlns="http://www.w3.org/2000/svg" xmlns:sodipodi="http://sodipodi.sourceforge.net/DTD/sodipodi-0.dtd" xmlns:inkscape="http://www.inkscape.org/namespaces/inkscape" version="1.1" id="svg2" xml:space="preserve" sodipodi:docname="pixar-seeklogo.com.ai" viewBox="127.21 135.8 321.59 56.2"><metadata id="metadata8"><rdf:rdf><cc:work rdf:about=""><dc:format>image/svg+xml</dc:format><dc:type rdf:resource="http://purl.org/dc/dcmitype/StillImage"></dc:type></cc:work></rdf:rdf></metadata><defs id="defs6"></defs><sodipodi:namedview pagecolor="#ffffff" bordercolor="#666666" borderopacity="1" objecttolerance="10" gridtolerance="10" guidetolerance="10" inkscape:pageopacity="0" inkscape:pageshadow="2" inkscape:window-width="640" inkscape:window-height="480" id="namedview4"></sodipodi:namedview><g id="g10" inkscape:groupmode="layer" inkscape:label="pixar-seeklogo.com" transform="matrix(1.3333333,0,0,-1.3333333,0,384)"><g id="g12" transform="translate(206.6016,169.7876)"><path d="m 0,0 9.17,11.031 3.251,3.343 3.544,0.941 0.099,0.33 0.036,0.325 0.029,0.392 H 15.446 L 15.06,16.26 3.055,16.362 3.09,16.163 3.119,15.873 3.185,15.674 3.318,15.349 6.962,14.466 7.091,14.148 6.927,13.885 6.892,13.789 2.112,6.373 -1.402,1.69 l -0.189,0.266 -0.555,0.612 -7.808,11.677 0.232,0.296 4.004,0.647 0.519,0.357 0.027,0.159 0.069,0.137 0.058,0.521 -1.747,-0.102 -15.682,0.032 0.102,-0.419 0.037,-0.328 0.092,-0.128 3.61,-1.043 0.453,-0.419 12.584,-16.685 0.104,-0.486 -0.104,-0.167 -10.827,-14.24 -3.51,-3.74 -3.676,-1.042 -0.035,-0.126 -0.061,-0.065 -0.226,-0.69 0.159,-0.055 h 0.49 l 0.393,0.09 13.362,-0.09 -0.033,0.323 -0.033,0.357 -0.033,0.388 -0.457,0.064 -0.161,0.064 -3.969,0.653 0.04,0.197 0.097,0.292 0.032,0.159 5.847,9.914 4.165,5.987 0.327,-0.288 6.929,-8.485 7.411,-8.007 4.715,-4.065 2.08,0.653 -15.675,22.338 z" style="fill:#fff;fill-opacity:1;fill-rule:nonzero;stroke:none" id="path14"></path></g><g id="g16" transform="translate(250.2627,166.73)"><path d="m 0,0 -0.154,0.129 5.69,16.069 0.261,0.194 5.616,-16.588 z m 30.147,-19.122 h -0.288 l -4.263,0.755 -0.163,0.223 -0.026,0.127 -0.074,0.037 -1.652,3.579 -5.756,14.696 -5.824,17.228 0.462,0.167 3.734,0.556 0.04,0.384 0.027,0.268 0.062,0.062 0.062,0.459 -16.878,-0.101 v -1.072 h 0.685 l 3.581,-0.648 0.064,-0.392 -11.708,-30.865 -2.209,-4.708 -0.198,-0.037 -0.129,-0.062 -4.033,-0.656 -0.325,-0.293 -0.095,-0.188 -0.034,-0.293 -0.092,-0.258 H 0.074 l -0.096,0.387 -0.07,0.551 -4.777,0.782 v 0.685 l 0.261,1.422 3.541,13.697 0.26,0.029 9.203,0.653 3.635,-0.134 0.107,-0.323 0.027,-0.163 0.161,-0.192 5.403,-15.513 -0.33,-0.193 -5.298,-0.75 -0.192,-1.067 1.46,0.09 17.27,-0.09 -0.234,1.097 z" style="fill:#fff;fill-opacity:1;fill-rule:nonzero;stroke:none" id="path18"></path></g><g id="g20" transform="translate(159.6836,148.2959)"><path d="m 0,0 -0.096,1.368 -0.098,32.192 0.327,2.373 5.625,0.814 0.228,0.29 0.03,0.296 0.159,0.386 h -19.219 l 0.1,-0.324 0.029,-0.229 0.073,-0.102 0.159,-0.223 5.724,-0.908 0.322,-5.984 L -6.829,0 h -0.586 l -5.5,-0.913 -0.029,-0.226 -0.066,-0.169 -0.034,-0.253 0.229,-0.233 0.331,-0.055 1.26,0.09 17.468,-0.09 -0.298,1.067 z" style="fill:#fff;fill-opacity:1;fill-rule:nonzero;stroke:none" id="path22"></path></g><g id="g24" transform="translate(125.3828,181.6226)"><path d="m 0,0 -1.624,1.529 -2.416,1.37 -3.828,1.032 -6.83,0.596 -15.251,-0.169 -0.03,-0.223 0.063,-0.296 V 3.353 l 0.258,-0.032 5.494,-0.715 0.227,-0.228 0.037,-0.258 0.065,-0.166 0.163,-2.797 -0.102,-32.484 -2.535,-0.295 -3.544,-0.618 -0.037,-0.226 -0.059,-0.169 -0.03,-0.253 0.218,-0.233 0.335,-0.055 1.264,0.09 18.437,-0.09 -0.39,1.097 -0.298,0.065 -6.727,0.687 -0.195,7.12 0.195,28.967 h 2.247 l 3.739,-0.64 1.912,-0.851 2.184,-1.788 1.072,-1.918 0.649,-2.598 -0.258,-3.874 -0.943,-2.628 -1.757,-2.41 -2.76,-1.948 -2.833,-1.013 -0.26,-0.327 -0.133,-0.973 0.298,-0.159 0.261,0.033 4.716,1.359 3.834,1.954 2.502,1.953 2.376,2.891 1.237,2.861 0.451,3.45 -0.362,1.891 z" style="fill:#fff;fill-opacity:1;fill-rule:nonzero;stroke:none" id="path26"></path></g><g id="g28" transform="translate(317.3457,168.0601)"><path d="M 0,0 -3.149,-1.102 -6.366,-1.719 H -8.222 L -8.03,16.323 -3.834,16.129 0.137,14.997 2.439,13.63 4.003,11.975 4.911,9.795 5.043,7.356 4.296,4.458 2.732,2.055 Z m 5.397,-3.154 -1.265,2.576 0.064,0.161 0.33,0.129 1.984,1.43 2.501,2.442 1.916,2.891 0.948,2.827 -0.263,2.673 -0.779,1.588 -1.433,1.529 -2.211,1.268 -3.057,0.881 -8.254,0.747 -16.717,-0.161 -0.035,-0.226 0.064,-0.301 v -0.486 l 6.019,-0.742 0.226,-3.06 -0.099,-32.776 h -0.484 l -5.599,-0.913 -0.03,-0.226 -0.062,-0.169 -0.035,-0.253 0.164,-0.234 0.288,-0.054 0.973,0.09 17.565,-0.09 v 0.581 l -0.094,0.486 -0.196,0.03 -5.856,0.752 -0.192,16.389 4.195,0.288 1.423,-0.159 2.25,-2.697 10.44,-11.22 5.755,-5.363 1.399,-0.75 2.011,0.452 -5.46,7.023 z" style="fill:#fff;fill-opacity:1;fill-rule:nonzero;stroke:none" id="path30"></path></g></g></svg>
